<?xml version="1.0" standalone="no"?>
<!DOCTYPE svg PUBLIC "-//W3C//DTD SVG 20010904//EN"
 "http://www.w3.org/TR/2001/REC-SVG-20010904/DTD/svg10.dtd">
<svg version="1.0" xmlns="http://www.w3.org/2000/svg"
 width="700.000000pt" height="700.000000pt" viewBox="0 0 700.000000 700.000000"
 preserveAspectRatio="xMidYMid meet">
<metadata>
Created by potrace 1.14, written by Peter Selinger 2001-2017
</metadata>
<g transform="translate(0.000000,700.000000) scale(0.100000,-0.100000)"
fill="#000000" stroke="none">
<path d="M3375 6339 c-88 -9 -106 -13 -179 -38 -201 -71 -357 -244 -414 -460
-16 -56 -20 -98 -17 -175 2 -56 5 -110 8 -121 3 -11 8 -33 12 -50 12 -49 73
-166 116 -222 232 -308 703 -343 979 -73 137 133 197 265 205 450 9 201 -61
372 -208 512 -131 124 -328 193 -502 177z"/>
<path d="M5643 6020 c-33 -9 -82 -29 -109 -44 -60 -35 -1159 -1128 -1173
-1166 -5 -17 -5 -36 3 -53 13 -31 509 -532 546 -552 14 -7 37 -11 52 -8 19 4
185 163 559 537 292 292 549 551 571 576 182 206 115 548 -132 675 -97 50
-216 63 -317 35z"/>
<path d="M1129 4145 c-259 -51 -419 -342 -322 -587 55 -142 185 -251 332 -278
33 -6 348 -10 815 -10 418 0 766 -4 772 -8 43 -29 56 -15 -935 -1006 -528
-529 -965 -973 -970 -988 -7 -18 -7 -37 -1 -53 14 -36 533 -551 563 -559 14
-3 36 -2 49 3 13 5 453 439 979 965 1003 1003 995 995 1015 934 4 -13 8 -443
8 -955 l1 -933 27 -27 28 -27 372 -1 c205 -1 386 3 401 8 60 20 56 -90 56
1761 0 983 -4 1707 -9 1721 -20 52 56 50 -1591 51 -1071 0 -1552 -3 -1590 -11z"/>
</g>
</svg>
