<?xml version="1.0" encoding="utf-8"?>
<!-- Generator: Adobe Illustrator 16.0.4, SVG Export Plug-In . SVG Version: 6.00 Build 0)  -->
<!DOCTYPE svg PUBLIC "-//W3C//DTD SVG 1.1//EN" "http://www.w3.org/Graphics/SVG/1.1/DTD/svg11.dtd">
<svg version="1.1" id="Logo" xmlns="http://www.w3.org/2000/svg" xmlns:xlink="http://www.w3.org/1999/xlink" x="0px" y="0px"
	 width="612px" height="792px" viewBox="0 0 612 792" enable-background="new 0 0 612 792" xml:space="preserve">
<g id="Beeldmerk">
	<path d="M354.767,212.941c51.086,51.08,142.062,142.051,158.858,158.854c24.136,24.136,17.47,51.646-17.321,58.602
		c-77.854,15.566-209.661-20.47-219.196-23.802c-16.313-5.741-18.415-16.405-12.363-22.46c6.053-6.054,19.74-19.736,19.74-19.736
		s13.696-13.703,19.742-19.747c6.048-6.043,16.72-3.951,22.448,12.372c1.148,3.29,6.181,21.058,11.633,46.136
		c20.659,4.188,45.014,8.315,69.549,10.832c-11.113-46.701-25.438-87.243-36.105-107.473c-29.938-56.838-75.33-54.828-96.988-33.175
		c-9.409,9.405-40.663,40.667-40.663,40.667s-31.25,31.248-40.655,40.656c-21.664,21.664-23.659,67.033,33.167,96.994
		c56.815,29.961,273.592,88.898,338.437,24.052c47.368-47.37,58.314-101.698-14.465-174.47
		c-72.78-72.777-211.338-211.34-211.338-211.34S303.682,161.852,354.767,212.941z"/>
	<path d="M424.367,520.843c-23.626-2.105-47.589-5.928-70.582-10.677c1.276,23.562,0.608,46.506-3.299,66.043
		c-6.947,34.789-34.47,41.47-58.606,17.335c-16.785-16.814-107.763-107.794-158.849-158.875C81.948,383.591,10,419.146,10,419.146
		s138.557,138.562,211.339,211.339c72.779,72.784,127.089,61.844,174.461,14.473C420.688,620.07,427.312,572.823,424.367,520.843z"
		/>
</g>
<g id="Beeldmerk_outlines" display="none">
	
		<radialGradient id="SVGID_1_" cx="939.9072" cy="-95.8101" r="1409.6119" gradientTransform="matrix(0.9997 0.0236 -0.0236 0.9997 7.1162 -7.7568)" gradientUnits="userSpaceOnUse">
		<stop  offset="0.0159" style="stop-color:#F9A01B"/>
		<stop  offset="0.5714" style="stop-color:#ED1962"/>
		<stop  offset="0.7041" style="stop-color:#BE2467"/>
		<stop  offset="0.9064" style="stop-color:#862B6E"/>
		<stop  offset="1" style="stop-color:#712C70"/>
	</radialGradient>
	<path display="inline" fill="url(#SVGID_1_)" d="M438.156,521.864c51.445,2.633,99.113-4.651,125.949-31.488
		c57.145-57.166,52.604-119.66-13.498-185.728L337.66,91.746l-10.236,20.704c-1.566,3.173-37.695,78.224,17.596,133.516
		l147.789,147.751c6.363,6.364,9.52,12.947,8.227,17.218c-1.225,4.05-7.307,7.619-15.857,9.323
		c-17.826,3.576-39.418,3.94-61.65,2.493l-1.256-5.332c-9.869-41.389-23.629-82.168-35.076-103.85
		c-6.16-11.712-13.342-21.712-21.33-29.695c-32.607-32.607-73.417-26.992-95.265-5.137l-75.619,75.644
		c-21.855,21.839-27.461,62.664,5.149,95.274c7.996,7.991,17.991,15.177,29.694,21.331c17.982,9.485,60.055,24.681,109.246,36.091
		l0.246,4.568c1.217,22.709,0.287,41.989-2.756,57.288c-1.719,8.552-5.287,14.643-9.338,15.864
		c-4.266,1.275-10.85-1.86-17.219-8.227L162.213,428.819C106.926,373.547,31.863,409.7,28.709,411.27L8,421.499l212.953,212.903
		c66.102,66.084,128.579,70.605,185.727,13.439C430.664,623.871,441.23,581.474,438.156,521.864z M290.917,399.05l24.362-24.37
		c1.133,3.674,4.488,15.701,8.355,32.727C307.201,403.692,295.244,400.422,290.917,399.05z"/>
	<path display="inline" fill="#FFFFFF" d="M356.738,234.244c47.529,47.507,132.158,132.137,147.803,147.753
		c22.441,22.456,16.248,48.048-16.111,54.513c-72.408,14.487-195.024-19.011-203.91-22.122c-15.186-5.318-17.124-15.259-11.5-20.875
		c5.621-5.627,18.364-18.38,18.364-18.38s12.723-12.732,18.362-18.352c5.619-5.63,15.537-3.668,20.873,11.501
		c1.068,3.054,5.762,19.586,10.826,42.923c19.236,3.869,41.891,7.713,64.703,10.067c-10.35-43.452-23.67-81.158-33.598-99.979
		c-27.877-52.858-70.078-50.998-90.23-30.834c-8.751,8.752-37.805,37.817-37.805,37.817s-29.081,29.078-37.824,37.832
		c-20.154,20.169-21.998,62.369,30.868,90.222c52.85,27.851,254.508,82.66,314.821,22.336
		c44.074-44.087,54.232-94.604-13.486-162.301c-67.707-67.692-196.609-196.566-196.609-196.566S309.207,186.72,356.738,234.244z"/>
	<path display="inline" fill="#FFFFFF" d="M421.521,520.657c-21.971-1.954-44.271-5.502-65.65-9.917
		c1.172,21.904,0.568,43.254-3.068,61.434c-6.469,32.375-32.057,38.573-54.521,16.126c-15.613-15.635-100.24-100.243-147.79-147.769
		c-47.514-47.507-114.437-14.422-114.437-14.422s128.9,128.885,196.61,196.582c67.707,67.689,118.233,57.509,162.293,13.44
		C418.104,612.987,424.252,569.025,421.521,520.657z"/>
</g>
</svg>
