<?xml version="1.0" standalone="no"?>
<!DOCTYPE svg PUBLIC "-//W3C//DTD SVG 20010904//EN"
 "http://www.w3.org/TR/2001/REC-SVG-20010904/DTD/svg10.dtd">
<svg version="1.0" xmlns="http://www.w3.org/2000/svg"
 width="260.000000pt" height="260.000000pt" viewBox="0 0 260.000000 260.000000"
 preserveAspectRatio="xMidYMid meet">
<metadata>
Created by potrace 1.11, written by Peter Selinger 2001-2013
</metadata>
<g transform="translate(0.000000,260.000000) scale(0.100000,-0.100000)"
fill="#000000" stroke="none">
<path d="M935 2256 c-160 -39 -279 -157 -328 -324 -16 -52 -16 -52 6 -47 90
20 124 23 212 21 75 -2 115 -9 160 -26 75 -29 105 -29 180 0 67 26 194 35 266
19 23 -6 43 -8 46 -6 9 10 -38 129 -70 178 -101 153 -297 229 -472 185z"/>
<path d="M670 1829 c-83 -21 -179 -71 -234 -121 -144 -129 -213 -336 -175
-520 13 -63 78 -202 114 -241 l25 -29 63 15 c34 9 96 25 137 37 41 12 107 30
145 40 39 10 97 26 130 35 33 10 65 18 70 19 6 2 35 10 65 19 30 8 114 32 185
52 72 20 134 40 139 45 16 16 16 171 0 240 -69 295 -374 482 -664 409z"/>
<path d="M1228 1831 c-37 -10 -71 -20 -75 -24 -4 -4 4 -15 18 -24 13 -10 40
-34 61 -55 120 -123 176 -262 177 -443 0 -69 3 -89 13 -86 7 2 85 23 172 47
88 24 164 48 169 53 10 10 14 150 5 191 -54 241 -305 400 -540 341z"/>
<path d="M1805 1812 c-71 -20 -132 -37 -134 -38 -2 -2 14 -25 36 -51 21 -26
47 -61 57 -76 13 -22 23 -27 40 -23 21 5 24 -1 50 -97 53 -192 58 -212 67
-234 7 -20 4 -24 -34 -34 -23 -6 -188 -51 -367 -101 -179 -50 -363 -101 -410
-113 -47 -13 -143 -40 -215 -60 -71 -20 -137 -38 -145 -40 -8 -2 -123 -33
-254 -69 -132 -36 -241 -66 -242 -66 -7 0 -39 68 -56 115 -21 62 -22 103 -4
146 11 28 12 45 2 94 -7 33 -12 81 -12 108 1 26 -2 47 -6 47 -20 0 -119 -115
-144 -166 -45 -94 -41 -176 19 -389 26 -93 64 -230 85 -302 l37 -133 1213 0
c1151 0 1213 1 1208 18 -5 16 -60 216 -92 330 -8 28 -21 78 -29 110 -27 101
-117 424 -141 508 l-24 81 -102 -29 c-56 -15 -105 -25 -109 -21 -4 5 -14 35
-22 68 -8 33 -38 142 -66 243 -28 101 -51 190 -51 198 0 18 -2 18 -155 -24z
m456 -1077 c62 -33 90 -131 52 -185 -27 -39 -36 -46 -75 -59 -114 -38 -211 75
-158 185 32 66 115 93 181 59z"/>
</g>
</svg>
