<svg xmlns="http://www.w3.org/2000/svg" xmlns:xlink="http://www.w3.org/1999/xlink" width="1440" height="1029" viewBox="0 0 1440 1029">
    <defs>
        <linearGradient id="wsnlu55kfb" x1="50%" x2="50%" y1="0%" y2="100%">
            <stop offset="0%" stop-color="#FFF"/>
            <stop offset="54.559%" stop-color="#FAFBFD"/>
            <stop offset="100%" stop-color="#F0F3FA"/>
        </linearGradient>
        <path id="kls6pyxtva" d="M0 0H1440V1029H0z"/>
    </defs>
    <g fill="none" fill-rule="evenodd">
        <g>
            <g>
                <g>
                    <mask id="fw8e22salc" fill="#fff">
                        <use xlink:href="#kls6pyxtva"/>
                    </mask>
                    <use fill="url(#wsnlu55kfb)" fill-rule="nonzero" xlink:href="#kls6pyxtva"/>
                    <path fill="#F0F3FA" d="M1077.507 433.858c90.297 0 163.493 73.344 163.493 163.826v154.05h-180.97c-80.272 0-145.496 64.559-146.792 144.678l-.02 2.433c0 81.241 65.73 147.11 146.811 147.11H1241v154.051c0 89.571-71.74 162.358-160.79 163.804l-2.703.022H347.493c-90.292 0-163.493-73.35-163.493-163.826V597.684c0-90.482 73.201-163.826 163.493-163.826zm-23.454 397.958c36.944 0 66.89 30.008 66.89 67.027 0 37.019-29.946 67.032-66.89 67.032s-66.896-30.013-66.896-67.032c0-37.02 29.952-67.027 66.896-67.027zM820.017 203.662c44.858-32.568 107.59-22.542 140.13 22.395l21.87 30.22-438.412 148.236zm-201.05-3.48c29.597-41.977 87.556-51.965 129.47-22.318l28.17 19.932-283.89 204.897zm390.853 81.632c41.882-.016 80.956 26.463 95.066 68.435l17.357 51.496H638.674l339.063-114.629c.316-.092.638-.136.96-.234 10.316-3.386 20.823-5.068 31.123-5.068z" mask="url(#fw8e22salc)" transform="rotate(-15 712.5 762.32)"/>
                </g>
            </g>
        </g>
    </g>
</svg>
