<svg xmlns="http://www.w3.org/2000/svg" width="1280" height="729" viewBox="0 0 1280 729">
    <path fill="#F0F3FA" fill-rule="evenodd" d="M991.917 230.633c104.632-28.036 212.166 34.027 240.193 138.625l186.574 696.301c28.025 104.592-34.07 212.114-138.701 240.15l-845.9 226.658c-104.625 28.034-212.168-34.033-240.193-138.625L7.316 697.44C-20.71 592.842 41.392 485.326 146.017 457.29zm287.912 316.712l-209.7 56.189c-93.952 25.175-149.713 121.729-124.548 215.646 25.165 93.917 121.732 149.655 215.685 124.48l209.7-56.188-91.137-340.127zm-191.531 150.38c42.677-11.435 86.54 13.89 97.975 56.566 11.436 42.677-13.887 86.547-56.564 97.982-42.677 11.436-86.549-13.893-97.984-56.57-11.435-42.678 13.895-86.543 56.573-97.978zM622.18 44.808c41.907-51.54 117.71-59.441 169.327-17.651l34.696 28.108-462.208 307.324zm-234.202 57.61c21.314-57.815 85.46-87.4 143.291-66.097l38.869 14.325-265.8 325.542zm478.257-27.122c48.516-13.02 102.015 5.56 131.405 49.858l36.112 54.335-560.237 150.115 357.198-238.2c.338-.205.697-.356 1.039-.57 10.9-7.129 22.55-12.341 34.483-15.538z" opacity=".04"/>
</svg>
