<svg xmlns="http://www.w3.org/2000/svg" width="520" height="579" viewBox="0 0 520 579">
    <path fill="#476FFF" fill-rule="evenodd" d="M425.579 114.578c52.48-14.062 106.31 16.667 120.235 68.637l23.71 88.483-105.18 28.184c-46.654 12.5-74.627 59.739-63.05 105.96l.363 1.4c12.504 46.663 60.843 74.26 107.968 61.633l105.18-28.183 23.71 88.484c13.785 51.448-16.708 104.427-68.241 119.126l-1.568.433L144.42 762.422c-52.477 14.061-106.31-16.67-120.235-68.637l-92.7-345.961c-13.926-51.97 17.33-105.498 69.808-119.56zm47.07 231.785c21.338-5.718 43.27 6.944 48.988 28.283 5.717 21.338-6.944 43.273-28.283 48.99-21.338 5.718-43.274-6.946-48.991-28.285-5.718-21.338 6.947-43.27 28.286-48.988zM239.896 23.286c21.17-25.751 59.343-29.798 85.268-9.04l17.427 13.961-233.124 153.855zM121.8 51.542c10.753-28.753 42.935-43.532 71.89-33.019l19.46 7.07L79.549 187.677zm240.464-13.55c24.426-6.555 51.274 2.48 65.935 24.276l18.014 26.735-282.05 75.575 180.2-118.54c.17-.102.352-.177.524-.284 5.499-3.548 11.37-6.152 17.377-7.762z" opacity=".05"/>
</svg>
