<svg xmlns="http://www.w3.org/2000/svg" xmlns:xlink="http://www.w3.org/1999/xlink" width="1440" height="1246" viewBox="0 0 1440 1246">
    <defs>
        <linearGradient id="7sxjhxj6ob" x1="50%" x2="50%" y1="0%" y2="100%">
            <stop offset="0%" stop-color="#FFF"/>
            <stop offset="54.559%" stop-color="#FAFBFD"/>
            <stop offset="100%" stop-color="#F0F3FA"/>
        </linearGradient>
        <path id="kx9pcu5nja" d="M0 0H1440V1246H0z"/>
    </defs>
    <g fill="none" fill-rule="evenodd">
        <g>
            <g>
                <g>
                    <mask id="at8rr72r4c" fill="#fff">
                        <use xlink:href="#kx9pcu5nja"/>
                    </mask>
                    <use fill="url(#7sxjhxj6ob)" fill-rule="nonzero" xlink:href="#kx9pcu5nja"/>
                    <g fill="#C0CDFB" fill-rule="nonzero" mask="url(#at8rr72r4c)" opacity=".174">
                        <g>
                            <path d="M748.504 43.741c5.288-10.24 10.749-20.406 16.384-30.488.163-.46.112-1.58.07-1.836-2.31-13.933-12.062-11.87-16.921-9.164-.763.35-.859.513-1.112.965-5.74 10.276-11.301 20.64-16.696 31.085C676.015 139.346 639.525 252.381 622 368.826c6.846.835 13.588 1.997 20.22 3.463 17.188-114.373 53.018-225.392 106.284-328.548zM786.144 206.606c4.756-6.215 9.62-12.36 14.592-18.427.164-.292.26-1.04.264-1.216.063-9.551-6.748-9.3-10.34-8.056-.557.146-.641.245-.865.512-5.063 6.192-10.021 12.455-14.871 18.793C732.174 254.088 697.9 315.629 673 380.867c4.382 1.67 8.692 3.48 12.93 5.422 24.453-64.186 58.154-124.73 100.214-179.683zM1025.806 221.276c10.24-5.26 20.578-10.355 31.007-15.283.402-.283 1.01-1.217 1.124-1.448 6.18-12.628-2.968-16.57-8.496-17.172-.828-.16-.999-.078-1.47.136-10.629 5.031-21.17 10.23-31.608 15.591C909.852 257.807 813.463 329.695 731 415.607c5.288 4.32 10.364 8.886 15.209 13.682 80.83-84.091 175.266-154.45 279.597-208.013zM961.254 373.424c7.445-2.343 14.94-4.566 22.475-6.667.297-.141.813-.698.917-.84 5.589-7.743-.061-11.438-3.68-12.48-.537-.2-.658-.168-.996-.076-7.683 2.143-15.317 4.414-22.906 6.804C889.434 381.458 825.43 412.408 767 451.91c2.775 3.7 5.421 7.5 7.954 11.38 57.282-38.692 120.014-69.01 186.3-89.866zM1151.357 524.386c11.396 1.567 22.777 3.321 34.138 5.259.487.001 1.524-.402 1.748-.522 12.378-6.572 7.22-14.85 3.067-18.436-.581-.589-.766-.622-1.275-.713-11.577-1.97-23.182-3.752-34.8-5.352-117.974-16.227-237.671-13.29-354.235 8.45 2.153 6.277 4.01 12.688 5.544 19.217 113.825-21.02 230.66-23.763 345.813-7.903zM1008.923 612.688c7.487 2.4 14.943 4.933 22.36 7.587.329.062 1.08-.1 1.243-.154 9.126-3.106 6.642-9.421 4.274-12.38-.323-.473-.44-.52-.77-.637-7.568-2.711-15.166-5.286-22.803-7.739C946.67 577.99 877.56 566.236 808 564.29c.344 4.617.531 9.278.577 13.971 67.91 2.006 135.367 13.544 200.346 34.428z" transform="translate(123 -178.29)"/>
                            <path d="M793.154 141.22L772.294 173.317 808.082 159.58 832.243 189.289 830.209 151.093 866 137.36 828.948 127.487 826.911 89.289 806.05 121.386 769 111.513zM600.577 367.29c-.213-69.253-.233-142.345.285-218.579L601 124.44c-.074-.146-.191-.357-.243-.429-2.003-2.468-3.959-3.72-5.817-3.72-2.195 0-4.186 1.837-5.392 3.659l-.036.048-.122 24.55c-.467 72.118-.47 141.972-.242 218.742 1.911-.043 3.828-.068 5.751-.068 1.899.001 3.79.025 5.678.068zM589.131 794.29c-.211 74.456-.196 142.548.26 212.795l.12 24.502c.012.015.025.032.038.046 1.205 1.818 3.196 3.656 5.39 3.656 1.86 0 3.815-1.25 5.818-3.716.052-.067.171-.28.243-.428l-.138-24.228c-.505-74.065-.5-145.146-.301-212.628-1.883.043-3.77.067-5.663.067-1.927.001-3.85-.022-5.767-.067z" transform="translate(123 -178.29)"/>
                            <path d="M616.907 1069.722L630.017 1033.527 598.302 1055.043 568.211 1031.289 578.708 1068.342 547 1089.858 585.198 1091.24 595.696 1128.289 608.804 1092.096 647 1093.477zM1048.952 337.103L1046.915 299.289 1026.051 331.064 989 321.289 1013.158 350.703 992.293 382.476 1028.087 368.879 1052.242 398.289 1050.206 360.475 1086 346.877zM1099.153 605.668L1097.347 571.289 1078.85 600.175 1046 591.289 1067.42 618.031 1048.919 646.915 1080.653 634.554 1102.071 661.289 1100.268 626.915 1132 614.552zM678.15 313.099c.803-2.62 1.646-5.223 2.546-7.808 3.875-11.188 8.66-22.069 14.324-32.525 2.735-5.057 5.677-10.017 8.82-14.868.132-.215.18-.29.152-.706-.01-2.672-1.234-7.644-8.173-5.286-.122.043-.653.306-.825.495-3.284 5.076-6.358 10.266-9.222 15.56-5.914 10.95-10.915 22.335-14.967 34.041-1.088 3.155-2.108 6.333-3.053 9.532-.094-.029-3.578 16.154-3.701 27.737-.502 19.556 2.808 11.912 5.77.554-.495 1.048 7.795-26.943 8.33-26.726zM801.996 254.533c-4.651 5.324-9.25 10.83-13.684 16.371l-.28.35c-2.254 3.121-20.29 29.959-29.277 51.06-3.745 8.448-5.719 13.713-6.755 16.975 2.411-2.525 6.166-6.92 11.866-14.537l.034.027c1.513-2.479 5.687-7.64 16.318-20.793 5.11-6.316 17.397-21.426 21.15-25.204.305-.31.693-.701 1.17-1.037 3.524-4.329 7.23-8.716 11.025-13.049 16.834-19.22 35.327-37.204 54.974-53.45 9.403-7.774 19.221-15.285 29.285-22.391l.012-.03c.5-1.215 2.022-5.42.52-8.456-.815-1.64-2.45-2.77-4.999-3.454-1.222-.325-2.633-.537-4.069-.626-.12.002-.34.024-.526.046-10.258 7.247-20.369 14.982-30.05 22.992-20.248 16.78-39.331 35.355-56.714 55.206zM1066.546 424.375c-.096-.076-.276-.202-.433-.298-12.491-1.064-25.182-1.66-37.72-1.771-26.243-.216-52.75 1.676-78.777 5.622-6.969 1.07-14.022 2.305-20.963 3.676l-.44.087c-3.726.924-34.739 9.763-55.157 20.032-8.281 4.016-13.173 6.75-16.056 8.566 3.461-.378 9.15-1.31 18.397-3.447l.007.039c2.747-.913 9.252-2.162 25.821-5.34 7.96-1.531 27.05-5.136 32.341-5.606.432-.04.983-.088 1.559-.038 5.473-1.034 11.123-1.993 16.803-2.853 25.2-3.82 50.878-5.64 76.32-5.405 12.177.112 24.504.694 36.756 1.739l.023-.014c1.164-.604 5.024-2.826 5.827-6.09.432-1.765-.093-3.672-1.599-5.82-.725-1.028-1.67-2.093-2.71-3.079zM872.054 552.834c2.728.273 5.453.592 8.17.967 11.752 1.612 23.37 4.177 34.748 7.675 5.497 1.695 10.935 3.604 16.305 5.73.237.09.32.125.723.013 2.632-.527 7.3-2.696 3.67-9.023-.067-.114-.42-.578-.637-.711-5.622-2.225-11.319-4.222-17.07-5.99-11.904-3.653-24.065-6.327-36.36-8.014-3.31-.45-6.631-.824-9.964-1.13.014-.097-16.592-.348-28.023 1.784-19.363 3.322-11.206 5.07.543 5.756-1.132-.284 28.008 2.376 27.895 2.943zM1192.11 728.084c-10.245-5.848-20.583-11.527-31-17.023-110.308-58.216-229.579-96.625-352.473-113.772-.561 6.94-1.44 13.788-2.637 20.526 120.496 16.854 237.432 54.547 345.571 111.655 10.221 5.392 20.355 10.957 30.412 16.7.46.165 1.583.122 1.835.084 13.947-2.259 11.937-12.121 9.252-17.038-.346-.776-.507-.873-.96-1.132zM988.539 765.399c6.234 4.766 12.39 9.643 18.472 14.621.291.163 1.047.264 1.224.268 9.613.113 9.392-6.669 8.163-10.252-.144-.548-.245-.632-.512-.855-6.203-5.081-12.485-10.043-18.837-14.903-60.287-46.107-127.223-82.481-198.354-107.989-1.43 4.447-2.99 8.833-4.695 13.148 69.765 25.035 135.416 60.727 194.539 105.962zM974.037 1005.972c5.222 10.268 10.278 20.63 15.171 31.083.28.405 1.211 1.018 1.445 1.129 12.624 6.251 16.628-2.883 17.26-8.402.163-.828.084-.995-.13-1.47-4.986-10.656-10.144-21.22-15.467-31.684C936.286 886.433 861.87 786.92 772.51 702.289c-3.912 5.654-8.087 11.106-12.51 16.347 86.97 82.726 159.419 179.858 214.037 287.336zM819.802 941.27c2.322 7.518 4.521 15.08 6.602 22.687.14.3.697.822.837.927 7.78 5.675 11.538.003 12.61-3.646.2-.536.17-.66.075-1.002-2.12-7.753-4.367-15.461-6.738-23.116-21.806-70.517-54.025-137.176-95.43-197.83-3.486 3.127-7.07 6.152-10.758 9.051 40.228 59.2 71.558 124.2 92.802 192.93zM668.094 1128.668c-1.683 11.38-3.556 22.733-5.613 34.068-.009.488.401 1.527.528 1.754 6.731 12.398 15.31 7.29 19.044 3.16.61-.574.647-.762.748-1.269 2.095-11.555 3.999-23.134 5.712-34.732 17.42-117.914 14.975-237.66-6.979-354.36-6.357 2.775-12.873 5.253-19.534 7.417 20.878 113.332 23.02 229.53 6.094 343.962z" transform="translate(123 -178.29)"/>
                            <path d="M1083.084 748.289L1053.259 772.317 1021.277 751.266 1034.825 787.174 1005 811.216 1043.198 809.374 1056.742 845.289 1066.806 808.233 1105 806.397 1073.021 785.34zM872.3 968.289L842.771 992.078 811.116 971.236 824.526 1006.782 795 1030.563 832.812 1028.749 846.224 1064.289 856.182 1027.623 894 1025.802 862.342 1004.961zM882.19 657.447c2.616.799 5.226 1.652 7.81 2.551 11.187 3.892 22.057 8.683 32.504 14.332 5.053 2.734 10.01 5.669 14.853 8.798.213.135.287.181.704.153 2.676.01 7.662-1.179 5.339-8.049-.043-.125-.306-.645-.494-.82-5.066-3.273-10.253-6.34-15.537-9.2-10.94-5.904-22.316-10.91-34.02-14.978-3.159-1.091-6.336-2.115-9.537-3.067.034-.095-16.162-3.622-27.77-3.808-19.583-.595-11.943 2.718-.583 5.703-1.05-.497 26.95 7.855 26.73 8.385zM890.303 759.92c6.322 5.184 21.432 17.655 25.205 21.453.315.308.7.698 1.036 1.182 4.33 3.58 8.72 7.34 13.05 11.187 19.221 17.067 37.186 35.808 53.404 55.693 7.763 9.519 15.255 19.461 22.336 29.641l.032.014c1.216.511 5.433 2.057 8.488.568 1.654-.816 2.798-2.456 3.495-5.021.333-1.227.557-2.653.651-4.1-.003-.122-.02-.34-.045-.53-7.223-10.376-14.942-20.611-22.936-30.41-16.744-20.498-35.303-39.834-55.147-57.46-5.326-4.717-10.832-9.388-16.376-13.883l-.352-.282c-3.117-2.293-29.989-20.613-51.13-29.786-8.464-3.817-13.744-5.833-17.014-6.897 2.525 2.444 6.916 6.252 14.54 12.037l-.03.03c2.48 1.542 7.639 5.78 20.793 16.564zM761.206 908.046l-.086-.44c-.901-3.73-9.545-34.774-19.669-55.224-3.96-8.298-6.658-13.201-8.451-16.093.36 3.462 1.258 9.155 3.338 18.407l-.04.007c.899 2.745 2.106 9.255 5.19 25.83 1.484 7.963 4.973 27.058 5.417 32.347.036.431.083.983.03 1.56 1 5.469 1.928 11.122 2.756 16.8 3.676 25.207 5.356 50.876 4.993 76.298-.176 12.166-.818 24.481-1.926 36.717l.012.029c.599 1.164 2.794 5.031 6.038 5.853 1.756.44 3.656-.074 5.807-1.571 1.024-.716 2.096-1.657 3.08-2.682.076-.1.204-.276.299-.433 1.127-12.48 1.786-25.154 1.962-37.685.35-26.226-1.4-52.721-5.195-78.752-1.033-6.97-2.225-14.026-3.555-20.968zM464.786 34.198c-5.394-10.41-10.962-20.743-16.7-30.99-.258-.45-.352-.612-1.113-.962-4.863-2.696-14.618-4.754-16.932 9.137-.041.254-.092 1.371.074 1.83 5.634 10.05 11.098 20.185 16.39 30.394 53.159 102.58 88.958 212.962 106.203 326.682 6.66-1.334 13.427-2.364 20.292-3.065C555.44 251.3 518.955 138.777 464.786 34.198zM420.184 197.268c-4.87-6.354-9.847-12.637-14.933-18.846-.225-.269-.31-.368-.866-.515-3.608-1.244-10.447-1.497-10.385 8.08.002.176.102.927.265 1.22 4.99 6.084 9.874 12.247 14.653 18.48C450.8 260.342 484.43 320.511 508.933 384.29c4.285-1.866 8.64-3.612 13.067-5.207-24.96-64.917-59.191-126.167-101.816-181.814zM178.744 201.172c-10.464-5.385-21.029-10.608-31.686-15.662-.473-.215-.641-.297-1.473-.137-5.54.605-14.714 4.565-8.515 17.25.115.23.722 1.17 1.124 1.455 10.456 4.95 20.82 10.07 31.084 15.352C273 272.791 366.976 342.742 447.555 426.29c4.927-4.752 10.08-9.27 15.445-13.537-82.266-85.466-178.264-157.025-284.256-211.58zM237.036 360.223c-7.612-2.41-15.273-4.7-22.983-6.861-.338-.093-.46-.125-.998.075-3.635 1.054-9.3 4.78-3.693 12.587.105.144.623.706.92.848 7.56 2.12 15.078 4.361 22.55 6.724 65.401 20.684 127.352 50.598 184.052 88.693 2.584-3.884 5.293-7.677 8.116-11.377-57.89-38.956-121.158-69.546-187.964-90.689zM42.757 504.823c-11.615 1.63-23.215 3.447-34.793 5.453-.509.095-.692.127-1.274.728-4.153 3.655-9.31 12.089 3.062 18.785.228.122 1.264.533 1.751.531 11.36-1.974 22.738-3.762 34.13-5.358 113.781-15.973 229.205-13.414 341.744 7.327 1.561-6.661 3.44-13.202 5.623-19.604-115.302-21.482-233.616-24.212-350.243-7.862zM180.792 599.32c-7.64 2.458-15.248 5.039-22.818 7.755-.332.119-.453.163-.772.639-2.37 2.967-4.855 9.294 4.275 12.407.165.055.916.216 1.243.154 7.426-2.66 14.884-5.198 22.38-7.604 63.698-20.5 129.777-32.01 196.33-34.36.042-4.712.228-9.389.57-14.022-68.203 2.298-135.93 14.04-201.208 35.032z" transform="translate(123 -178.29)"/>
                            <path d="M362.755 189.289L386.915 159.58 422.706 173.317 401.844 141.22 426 111.513 388.948 121.386 368.087 89.289 366.05 127.487 329 137.36 364.793 151.093zM170.947 331.064L150.083 299.289 148.048 337.103 111 346.877 146.792 360.475 144.755 398.289 168.91 368.879 204.703 382.476 183.84 350.703 208 321.289zM116.148 600.175L97.655 571.289 95.847 605.668 63 614.552 94.734 626.915 92.928 661.289 114.345 634.554 146.079 646.915 127.581 618.031 149 591.289zM530.95 339.271c-.124-11.585-3.61-27.766-3.702-27.737-.947-3.199-1.965-6.377-3.052-9.532-4.053-11.706-9.053-23.09-14.969-34.041-2.862-5.294-5.939-10.484-9.22-15.56-.174-.188-.7-.45-.826-.495-6.94-2.358-8.165 2.614-8.172 5.286-.031.416.02.491.151.706 3.141 4.85 6.085 9.81 8.82 14.868 5.662 10.458 10.448 21.337 14.326 32.526.898 2.586 1.744 5.188 2.543 7.807.537-.217 8.83 27.774 8.331 26.725 2.96 11.36 6.268 19.003 5.77-.553zM297.175 188.853c10.066 7.104 19.885 14.616 29.288 22.392 19.647 16.244 38.14 34.23 54.975 53.45 3.795 4.333 7.502 8.72 11.028 13.05.474.335.862.726 1.171 1.036 3.748 3.779 16.037 18.889 21.146 25.205 10.633 13.154 14.806 18.314 16.32 20.793l.033-.027c5.702 7.619 9.455 12.012 11.864 14.537-1.035-3.262-3.009-8.527-6.753-16.975-8.99-21.1-27.025-47.94-29.28-51.06l-.28-.35c-4.432-5.542-9.036-11.048-13.683-16.372-17.383-19.852-36.466-38.426-56.716-55.204-9.682-8.011-19.79-15.746-30.05-22.993-.185-.022-.402-.044-.525-.046-1.436.089-2.85.3-4.067.626-2.551.684-4.185 1.814-5.002 3.454-1.497 3.036.017 7.241.52 8.457l.011.027zM266.785 431.691l-.44-.086c-6.94-1.37-13.994-2.606-20.963-3.677-26.03-3.946-52.534-5.838-78.776-5.622-12.54.112-25.228.707-37.723 1.77-.155.1-.337.223-.433.3-1.038.985-1.983 2.05-2.702 3.077-1.51 2.148-2.034 4.055-1.601 5.82.803 3.265 4.663 5.486 5.826 6.09l.024.014c12.25-1.045 24.58-1.627 36.754-1.74 25.442-.233 51.119 1.585 76.32 5.406 5.68.86 11.332 1.819 16.804 2.854.576-.051 1.127-.002 1.56.037 5.29.47 24.38 4.075 32.34 5.606 16.57 3.18 23.076 4.43 25.82 5.34l.008-.038c9.246 2.136 14.934 3.069 18.397 3.447-2.883-1.815-7.775-4.55-16.058-8.566-20.415-10.268-51.431-19.107-55.157-20.032zM351.384 544.135c-11.434-2.132-28.037-1.88-28.022-1.783-3.332.305-6.655.682-9.963 1.13-12.297 1.684-24.458 4.36-36.362 8.013-5.753 1.768-11.449 3.765-17.066 5.99-.218.133-.574.595-.642.711-3.628 6.327 1.04 8.496 3.673 9.023.401.112.487.077.72-.013 5.374-2.126 10.811-4.037 16.307-5.73 11.375-3.5 22.993-6.065 34.745-7.675 2.718-.373 5.442-.694 8.172-.967-.111-.567 29.029-3.227 27.897-2.941 11.748-.687 19.903-2.436.54-5.758zM33.896 710.402c-10.42 5.445-20.758 11.07-31.007 16.86-.452.256-.611.352-.959 1.118-2.684 4.872-4.697 14.639 9.253 16.874.254.038 1.375.08 1.835-.083 10.057-5.688 20.195-11.2 30.415-16.54C150.378 672.71 265.92 635.575 385 618.612c-1.215-6.67-2.114-13.45-2.694-20.322-121.46 17.258-239.317 55.1-348.41 112.113zM197.92 753.408c-6.345 4.836-12.615 9.772-18.809 14.828-.267.222-.364.306-.508.851-1.232 3.567-1.45 10.315 8.148 10.2.176-.003.931-.105 1.224-.265 6.069-4.954 12.216-9.807 18.438-14.549 58-44.23 122.289-79.293 190.587-104.132-1.733-4.286-3.33-8.635-4.788-13.052-69.626 25.305-135.162 61.04-194.293 106.119zM202.762 996.711c-5.35 10.445-10.532 20.99-15.544 31.625-.214.473-.295.64-.13 1.466.636 5.51 4.657 14.625 17.351 8.386.234-.111 1.172-.722 1.453-1.127 4.916-10.433 9.997-20.775 15.246-31.023C275.56 899.71 347.599 803.532 434 721.438c-4.518-5.17-8.79-10.559-12.797-16.149-88.716 83.959-162.645 182.463-218.44 291.422zM362.717 936.212c-2.337 7.632-4.553 15.317-6.645 23.046-.092.34-.124.464.076.999 1.057 3.637 4.76 9.292 12.429 3.634.14-.106.69-.625.828-.924 2.05-7.583 4.222-15.122 6.51-22.617C396.61 872.641 427.013 808.561 466 750.106c-3.674-2.825-7.261-5.76-10.742-8.817-40.076 59.853-71.313 125.513-92.54 194.923zM506.555 1130.583c1.724 11.616 3.64 23.214 5.748 34.788.098.508.135.696.75 1.272 3.754 4.136 12.385 9.252 19.155-3.166.126-.229.537-1.268.531-1.757-2.071-11.354-3.954-22.726-5.646-34.124-16.963-114.2-14.881-230.154 5.907-343.278-6.725-2.033-13.307-4.381-19.737-7.029-21.797 116.37-24.146 235.741-6.708 353.294z" transform="translate(123 -178.29)"/>
                            <path d="M160.174 787.174L173.722 751.266 141.741 772.317 111.915 748.289 121.978 785.34 90 806.397 128.197 808.233 138.258 845.289 151.802 809.374 190 811.216zM383.882 971.236L352.227 992.078 322.698 968.289 332.66 1004.961 301 1025.802 338.816 1027.623 348.776 1064.289 362.188 1028.749 400 1030.563 370.476 1006.782zM338.956 643.36c-11.604.183-27.798 3.712-27.769 3.807-3.2.953-6.376 1.976-9.535 3.067-11.705 4.068-23.08 9.074-34.022 14.978-5.284 2.859-10.47 5.925-15.537 9.2-.188.174-.45.692-.492.82-2.325 6.87 2.662 8.06 5.339 8.049.417.03.492-.02.706-.153 4.843-3.13 9.798-6.065 14.85-8.798 10.447-5.65 21.317-10.44 32.505-14.332 2.587-.899 5.193-1.754 7.81-2.551-.222-.532 27.777-8.882 26.728-8.382 11.362-2.988 19.003-6.301-.583-5.706zM322.985 738.186c-21.145 9.173-48.012 27.493-51.131 29.786l-.352.282c-5.542 4.495-11.05 9.166-16.374 13.883-19.845 17.626-38.404 36.962-55.147 57.46-7.996 9.799-15.713 20.034-22.938 30.41-.022.189-.041.406-.043.53.094 1.447.316 2.873.65 4.1.698 2.565 1.842 4.205 3.496 5.021 3.055 1.489 7.272-.057 8.49-.568l.03-.014c7.083-10.18 14.573-20.12 22.334-29.64 16.216-19.887 34.182-38.627 53.402-55.694 4.33-3.847 8.719-7.607 13.05-11.187.333-.482.722-.874 1.036-1.182 3.773-3.798 18.883-16.269 25.203-21.453 13.156-10.786 18.318-15.024 20.798-16.564l-.029-.03c7.622-5.785 12.017-9.593 14.54-12.037-3.272 1.066-8.555 3.081-17.015 6.897zM453.549 852.382c-10.124 20.45-18.77 51.493-19.67 55.223l-.087.441c-1.329 6.942-2.522 13.998-3.553 20.968-3.796 26.029-5.544 52.526-5.196 78.752.176 12.53.837 25.206 1.961 37.685.096.157.225.334.3.433.985 1.027 2.056 1.966 3.08 2.682 2.15 1.497 4.05 2.012 5.806 1.57 3.247-.819 5.44-4.688 6.038-5.852l.013-.03c-1.105-12.235-1.747-24.55-1.925-36.716-.365-25.422 1.319-51.091 4.993-76.298.83-5.678 1.756-11.331 2.757-16.8-.054-.577-.009-1.129.029-1.56.44-5.289 3.933-24.386 5.417-32.348 3.084-16.575 4.293-23.084 5.189-25.829l-.04-.007c2.08-9.252 2.979-14.945 3.339-18.407-1.793 2.892-4.493 7.795-8.451 16.093z" transform="translate(123 -178.29)"/>
                        </g>
                    </g>
                </g>
            </g>
        </g>
    </g>
</svg>
