<svg xmlns="http://www.w3.org/2000/svg" xmlns:xlink="http://www.w3.org/1999/xlink" width="1440" height="1590" viewBox="0 0 1440 1590">
    <defs>
        <linearGradient id="dvpsxea28b" x1="50%" x2="50%" y1="0%" y2="100%">
            <stop offset="0%" stop-color="#FFF"/>
            <stop offset="54.559%" stop-color="#FAFBFD"/>
            <stop offset="100%" stop-color="#F0F3FA"/>
        </linearGradient>
        <path id="2ddegm936a" d="M0 0H1440V1590H0z"/>
    </defs>
    <g fill="none" fill-rule="evenodd">
        <g>
            <g transform="translate(0 388) translate(0 -388)">
                <mask id="bpsqs3t5wc" fill="#fff">
                    <use xlink:href="#2ddegm936a"/>
                </mask>
                <use fill="url(#dvpsxea28b)" fill-rule="nonzero" xlink:href="#2ddegm936a"/>
                <path fill="#F0F3FA" d="M1077.507 712.59c90.297 0 163.493 73.221 163.493 163.55v153.791h-180.97c-80.272 0-145.496 64.45-146.792 144.435l-.02 2.429c0 81.104 65.73 146.863 146.811 146.863l180.971-.001v153.793c0 89.42-71.74 162.084-160.79 163.528l-2.703.022H347.493C257.201 1641 184 1567.773 184 1477.45V876.14c0-90.329 73.201-163.55 163.493-163.55zm-23.454 397.289c36.944 0 66.89 29.957 66.89 66.914s-29.946 66.919-66.89 66.919-66.896-29.962-66.896-66.92c0-36.956 29.952-66.913 66.896-66.913zM820.017 482.78c44.858-32.513 107.59-22.504 140.13 22.358l21.87 30.17-438.412 147.985zm-201.05-3.473c29.597-41.907 87.556-51.879 129.47-22.281l28.17 19.898-283.89 204.553zm390.853 81.494c41.882-.017 80.956 26.418 95.066 68.32l17.357 51.41H638.674l339.063-114.437c.316-.092.638-.136.96-.234 10.316-3.38 20.823-5.06 31.123-5.06z" mask="url(#bpsqs3t5wc)" transform="rotate(-15 712.5 1040.5)"/>
            </g>
        </g>
    </g>
</svg>
