<?xml version="1.0" encoding="UTF-8"?>
<svg width="1440px" height="1187px" viewBox="0 0 1440 1187" version="1.1" xmlns="http://www.w3.org/2000/svg" xmlns:xlink="http://www.w3.org/1999/xlink">
    <title>bg-tarieven</title>
    <defs>
        <polygon id="path-1" points="0 0 1440 0 1440 1187 0 1187"></polygon>
    </defs>
    <g id="Page-1" stroke="none" stroke-width="1" fill="none" fill-rule="evenodd">
        <g id="bg-tarieven">
            <g id="Clipped">
                <mask id="mask-2" fill="white">
                    <use xlink:href="#path-1"></use>
                </mask>
                <g id="prefix__a"></g>
                <path d="M1077.50687,752.590017 C1167.80387,752.590017 1240.99987,825.811017 1240.99987,916.140017 L1240.99987,1069.93102 L1060.02987,1069.93102 C979.757871,1069.93102 914.533871,1134.38102 913.237871,1214.36602 L913.217871,1216.79502 C913.217871,1297.89902 978.947871,1363.65802 1060.02887,1363.65802 L1240.99987,1363.65702 L1240.99987,1517.45002 C1240.99987,1606.87002 1169.25987,1679.53402 1080.20987,1680.97802 L1077.50687,1681.00002 L347.492871,1681.00002 C257.200871,1681.00002 183.999871,1607.77302 183.999871,1517.45002 L183.999871,916.140017 C183.999871,825.811017 257.200871,752.590017 347.492871,752.590017 L1077.50687,752.590017 Z M1054.05287,1149.87902 C1090.99687,1149.87902 1120.94287,1179.83602 1120.94287,1216.79302 C1120.94287,1253.75002 1090.99687,1283.71202 1054.05287,1283.71202 C1017.10887,1283.71202 987.156871,1253.75002 987.156871,1216.79202 C987.156871,1179.83602 1017.10887,1149.87902 1054.05287,1149.87902 Z M820.016871,522.780017 C864.874871,490.267017 927.606871,500.276017 960.146871,545.138017 L982.016871,575.308017 L543.604871,723.293017 L820.016871,522.780017 Z M618.966871,519.307017 C648.563871,477.400017 706.522871,467.428017 748.436871,497.026017 L776.606871,516.924017 L492.716871,721.477017 L618.966871,519.307017 Z M1009.81987,600.800017 C1051.70187,600.784017 1090.77587,627.219017 1104.88587,669.121017 L1122.24287,720.531017 L638.673871,720.531017 L977.736871,606.094017 C978.052871,606.002017 978.374871,605.958017 978.696871,605.860017 C989.012871,602.480017 999.519871,600.800017 1009.81987,600.800017 L1009.81987,600.800017 Z" id="Shape" fill="#F0F3FA" fill-rule="nonzero" mask="url(#mask-2)" transform="translate(712.499871, 1080.499519) rotate(-15.000000) translate(-712.499871, -1080.499519) "></path>
            </g>
        </g>
    </g>
</svg>