<svg xmlns="http://www.w3.org/2000/svg" width="139" height="221" viewBox="0 0 139 221">
    <g fill="none" transform="translate(-55 -108)">
        <path stroke="rgba(255,255,255,0.5)" stroke-dasharray="0 12" stroke-linecap="round" stroke-width="3" d="M.229 192.771v68.458H49.5v27.037h66.729V399.23"/>
        <circle cx="146.5" cy="64.5" r="64.5" fill="rgba(255,255,255,0.5)"/>
        <path fill="rgba(255,255,255,0.5)" d="M57 218.755c2.21 0 4 1.791 4 4 0 2.21-1.79 4-4 4s-4-1.79-4-4c0-2.209 1.79-4 4-4zm23 0c2.21 0 4 1.791 4 4 0 2.21-1.79 4-4 4s-4-1.79-4-4c0-2.209 1.79-4 4-4zm-23-22c2.21 0 4 1.791 4 4 0 2.21-1.79 4-4 4s-4-1.79-4-4c0-2.209 1.79-4 4-4zm23 0c2.21 0 4 1.791 4 4 0 2.21-1.79 4-4 4s-4-1.79-4-4c0-2.209 1.79-4 4-4zm-23-23c2.21 0 4 1.791 4 4 0 2.21-1.79 4-4 4s-4-1.79-4-4c0-2.209 1.79-4 4-4zm23 0c2.21 0 4 1.791 4 4 0 2.21-1.79 4-4 4s-4-1.79-4-4c0-2.209 1.79-4 4-4zm-23-22c2.21 0 4 1.791 4 4 0 2.21-1.79 4-4 4s-4-1.79-4-4c0-2.209 1.79-4 4-4zm23 0c2.21 0 4 1.791 4 4 0 2.21-1.79 4-4 4s-4-1.79-4-4c0-2.209 1.79-4 4-4z"/>
    </g>
</svg>
