<?xml version="1.0" encoding="UTF-8"?>
<svg width="464px" height="429px" viewBox="0 0 464 429" version="1.1" xmlns="http://www.w3.org/2000/svg" xmlns:xlink="http://www.w3.org/1999/xlink">
    <!-- Generator: Sketch 64 (93537) - https://sketch.com -->
    <title>Group 34</title>
    <desc>Created with Sketch.</desc>
    <g id="Page-1" stroke="none" stroke-width="1" fill="none" fill-rule="evenodd">
        <g id="00.-home" transform="translate(-812.000000, -2632.000000)" fill-rule="nonzero">
            <g id="Group-5" transform="translate(128.000000, 2561.000000)">
                <g id="Group-16" transform="translate(372.000000, 73.000000)">
                    <g id="Group-34" transform="translate(313.934148, 0.244891)">
                        <g id="Group-13" transform="translate(243.065852, 265.755109)" fill="#45D189">
                            <rect id="Rectangle" x="140" y="0" width="79" height="153" rx="8"></rect>
                            <path d="M4,153 C6.209139,153 8,154.790861 8,157 C8,159.209139 6.209139,161 4,161 C1.790861,161 -1.5187851e-13,159.209139 -1.5187851e-13,157 C-1.5187851e-13,154.790861 1.790861,153 4,153 Z M27,153 C29.209139,153 31,154.790861 31,157 C31,159.209139 29.209139,161 27,161 C24.790861,161 23,159.209139 23,157 C23,154.790861 24.790861,153 27,153 Z M50,153 C52.209139,153 54,154.790861 54,157 C54,159.209139 52.209139,161 50,161 C47.790861,161 46,159.209139 46,157 C46,154.790861 47.790861,153 50,153 Z M73,153 C75.209139,153 77,154.790861 77,157 C77,159.209139 75.209139,161 73,161 C70.790861,161 69,159.209139 69,157 C69,154.790861 70.790861,153 73,153 Z M4,131 C6.209139,131 8,132.790861 8,135 C8,137.209139 6.209139,139 4,139 C1.790861,139 -1.5187851e-13,137.209139 -1.5187851e-13,135 C-1.5187851e-13,132.790861 1.790861,131 4,131 Z M27,131 C29.209139,131 31,132.790861 31,135 C31,137.209139 29.209139,139 27,139 C24.790861,139 23,137.209139 23,135 C23,132.790861 24.790861,131 27,131 Z M50,131 C52.209139,131 54,132.790861 54,135 C54,137.209139 52.209139,139 50,139 C47.790861,139 46,137.209139 46,135 C46,132.790861 47.790861,131 50,131 Z M73,131 C75.209139,131 77,132.790861 77,135 C77,137.209139 75.209139,139 73,139 C70.790861,139 69,137.209139 69,135 C69,132.790861 70.790861,131 73,131 Z M4,108 C6.209139,108 8,109.790861 8,112 C8,114.209139 6.209139,116 4,116 C1.790861,116 -1.5187851e-13,114.209139 -1.5187851e-13,112 C-1.5187851e-13,109.790861 1.790861,108 4,108 Z M27,108 C29.209139,108 31,109.790861 31,112 C31,114.209139 29.209139,116 27,116 C24.790861,116 23,114.209139 23,112 C23,109.790861 24.790861,108 27,108 Z M50,108 C52.209139,108 54,109.790861 54,112 C54,114.209139 52.209139,116 50,116 C47.790861,116 46,114.209139 46,112 C46,109.790861 47.790861,108 50,108 Z M73,108 C75.209139,108 77,109.790861 77,112 C77,114.209139 75.209139,116 73,116 C70.790861,116 69,114.209139 69,112 C69,109.790861 70.790861,108 73,108 Z M4,86 C6.209139,86 8,87.790861 8,90 C8,92.209139 6.209139,94 4,94 C1.790861,94 -1.5187851e-13,92.209139 -1.5187851e-13,90 C-1.5187851e-13,87.790861 1.790861,86 4,86 Z M27,86 C29.209139,86 31,87.790861 31,90 C31,92.209139 29.209139,94 27,94 C24.790861,94 23,92.209139 23,90 C23,87.790861 24.790861,86 27,86 Z M50,86 C52.209139,86 54,87.790861 54,90 C54,92.209139 52.209139,94 50,94 C47.790861,94 46,92.209139 46,90 C46,87.790861 47.790861,86 50,86 Z M73,86 C75.209139,86 77,87.790861 77,90 C77,92.209139 75.209139,94 73,94 C70.790861,94 69,92.209139 69,90 C69,87.790861 70.790861,86 73,86 Z" id="Combined-Shape"></path>
                        </g>
                        <path d="M0,373.755109 L0,338.255109 L312.065852,338.255109 L312.065852,2.27373675e-13 L417.12285,2.27373675e-13" id="Path-5" stroke="#D8DCE3" stroke-width="3" stroke-linecap="round" stroke-dasharray="0,12"></path>
                    </g>
                </g>
            </g>
        </g>
    </g>
</svg>