<svg xmlns="http://www.w3.org/2000/svg" width="126" height="103" viewBox="0 0 126 103">
    <g fill="#45D189">
        <rect width="87" height="88.403" x="39" y="14.226" rx="8"/>
        <path d="M4 68.08c2.21 0 4 1.82 4 4.065S6.21 76.21 4 76.21s-4-1.82-4-4.065 1.79-4.064 4-4.064zm23 0c2.21 0 4 1.82 4 4.065s-1.79 4.065-4 4.065-4-1.82-4-4.065 1.79-4.064 4-4.064zm23 0c2.21 0 4 1.82 4 4.065s-1.79 4.065-4 4.065-4-1.82-4-4.065 1.79-4.064 4-4.064zm23 0c2.21 0 4 1.82 4 4.065s-1.79 4.065-4 4.065-4-1.82-4-4.065 1.79-4.064 4-4.064zM4 45.727c2.21 0 4 1.82 4 4.064 0 2.245-1.79 4.065-4 4.065s-4-1.82-4-4.065c0-2.244 1.79-4.064 4-4.064zm23 0c2.21 0 4 1.82 4 4.064 0 2.245-1.79 4.065-4 4.065s-4-1.82-4-4.065c0-2.244 1.79-4.064 4-4.064zm23 0c2.21 0 4 1.82 4 4.064 0 2.245-1.79 4.065-4 4.065s-4-1.82-4-4.065c0-2.244 1.79-4.064 4-4.064zm23 0c2.21 0 4 1.82 4 4.064 0 2.245-1.79 4.065-4 4.065s-4-1.82-4-4.065c0-2.244 1.79-4.064 4-4.064zM4 22.355c2.21 0 4 1.82 4 4.064 0 2.245-1.79 4.065-4 4.065s-4-1.82-4-4.065c0-2.244 1.79-4.064 4-4.064zm23 0c2.21 0 4 1.82 4 4.064 0 2.245-1.79 4.065-4 4.065s-4-1.82-4-4.065c0-2.244 1.79-4.064 4-4.064zm23 0c2.21 0 4 1.82 4 4.064 0 2.245-1.79 4.065-4 4.065s-4-1.82-4-4.065c0-2.244 1.79-4.064 4-4.064zm23 0c2.21 0 4 1.82 4 4.064 0 2.245-1.79 4.065-4 4.065s-4-1.82-4-4.065c0-2.244 1.79-4.064 4-4.064zM4 0c2.21 0 4 1.82 4 4.065 0 2.244-1.79 4.064-4 4.064s-4-1.82-4-4.064C0 1.82 1.79 0 4 0zm23 0c2.21 0 4 1.82 4 4.065 0 2.244-1.79 4.064-4 4.064s-4-1.82-4-4.064C23 1.82 24.79 0 27 0zm23 0c2.21 0 4 1.82 4 4.065 0 2.244-1.79 4.064-4 4.064s-4-1.82-4-4.064C46 1.82 47.79 0 50 0zm23 0c2.21 0 4 1.82 4 4.065 0 2.244-1.79 4.064-4 4.064s-4-1.82-4-4.064C69 1.82 70.79 0 73 0z"/>
    </g>
</svg>
