<svg xmlns="http://www.w3.org/2000/svg" width="1173" height="342" viewBox="0 0 1173 342">
    <g fill="none" fill-rule="evenodd" transform="translate(0 -4)">
        <path fill-rule="nonzero" stroke="#476FFF" stroke-dasharray="0 12" stroke-linecap="round" stroke-width="3" d="M3.033 71h315.15v178.048h108.85V346"/>
        <path fill-rule="nonzero" stroke="#FEBB1B" stroke-dasharray="0 12" stroke-linecap="round" stroke-width="3" d="M1167 29h-159.84v74.363H899.105V239.318H784V348"/>
        <circle cx="319" cy="249" r="7" fill="#476FFF" stroke="#FFF" stroke-width="2"/>
        <circle cx="319" cy="71" r="7" fill="#476FFF" stroke="#FFF" stroke-width="2"/>
        <circle cx="518" cy="174" r="7" fill="#45D189" stroke="#FFF" stroke-width="2"/>
        <circle cx="606" cy="281" r="7" fill="#45D189" stroke="#FFF" stroke-width="2"/>
        <circle cx="518" cy="281" r="7" fill="#45D189" stroke="#FFF" stroke-width="2"/>
        <circle cx="427" cy="249" r="7" fill="#476FFF" stroke="#FFF" stroke-width="2"/>
        <circle cx="1008" cy="27" r="7" fill="#FEBB1B" stroke="#FFF" stroke-width="2"/>
        <circle cx="1008" cy="101" r="7" fill="#FEBB1B" stroke="#FFF" stroke-width="2"/>
        <circle cx="899" cy="104" r="7" fill="#FEBB1B" stroke="#FFF" stroke-width="2"/>
        <circle cx="899" cy="239" r="7" fill="#FEBB1B" stroke="#FFF" stroke-width="2"/>
        <circle cx="784" cy="239" r="7" fill="#FEBB1B" stroke="#FFF" stroke-width="2"/>
        <path fill-rule="nonzero" stroke="#45D189" stroke-dasharray="0 12" stroke-linecap="round" stroke-width="3" d="M100.031 174H519v109.363h87.031V346"/>
        <path fill="#476FFF" fill-rule="nonzero" d="M2.283 56l.725-2.379H6.65L7.376 56h2.283L6.12 45.965H3.526L0 56h2.283zm3.863-4.156H3.54c.711-2.302 1.142-3.744 1.292-4.327.036.164.097.387.181.67.084.282.462 1.501 1.132 3.657zm7.71 4.293c.525 0 .959-.041 1.303-.123.344-.082.684-.23 1.022-.445v-1.784c-.342.228-.684.396-1.026.503-.342.107-.713.16-1.114.16-1.085 0-1.627-.747-1.627-2.242 0-1.54.542-2.31 1.627-2.31.283 0 .565.042.848.126.282.084.588.193.916.325l.615-1.614c-.702-.346-1.495-.52-2.379-.52-1.208 0-2.135.344-2.782 1.03-.647.686-.97 1.678-.97 2.977 0 2.611 1.189 3.917 3.567 3.917zm7.199 0c.524 0 .958-.041 1.302-.123.344-.082.685-.23 1.022-.445v-1.784c-.342.228-.684.396-1.025.503-.342.107-.714.16-1.115.16-1.084 0-1.627-.747-1.627-2.242 0-1.54.543-2.31 1.627-2.31.283 0 .565.042.848.126.282.084.588.193.916.325l.615-1.614c-.702-.346-1.495-.52-2.379-.52-1.207 0-2.135.344-2.782 1.03-.647.686-.97 1.678-.97 2.977 0 2.611 1.189 3.917 3.568 3.917zm7.314 0c1.171 0 2.085-.351 2.741-1.053.657-.702.985-1.675.985-2.919 0-.802-.15-1.502-.451-2.099-.301-.597-.732-1.055-1.292-1.374-.561-.319-1.208-.478-1.942-.478-1.18 0-2.096.346-2.748 1.039-.652.693-.977 1.663-.977 2.912 0 .802.15 1.504.45 2.106.302.601.732 1.062 1.293 1.384.56.321 1.207.482 1.941.482zm.027-1.675c-.56 0-.965-.194-1.213-.581-.248-.388-.372-.96-.372-1.716 0-.761.123-1.33.369-1.706.246-.376.647-.563 1.203-.563.56 0 .964.189 1.21.567.246.378.369.946.369 1.702 0 .761-.122 1.334-.366 1.72-.244.384-.644.577-1.2.577zm8.094 1.675c.524 0 .991-.097 1.402-.29.41-.194.726-.47.95-.825h.11l.28.978h1.6v-7.643h-2.086v3.596c0 .902-.13 1.548-.39 1.938-.26.39-.68.585-1.264.585-.429 0-.74-.138-.937-.414-.196-.276-.294-.69-.294-1.24v-4.465h-2.085v4.984c0 .902.228 1.594.684 2.075.456.48 1.132.72 2.03.72zM45.104 56v-3.596c0-.902.13-1.548.39-1.938.259-.39.68-.584 1.264-.584.428 0 .74.138.936.413.196.276.294.69.294 1.241V56h2.085v-4.983c0-.907-.23-1.601-.69-2.082-.46-.48-1.135-.721-2.024-.721-.52 0-.983.094-1.39.284-.409.189-.729.468-.961.837h-.116l-.28-.978h-1.593V56h2.085zm9.734.137c.756 0 1.394-.116 1.914-.349v-1.552c-.51.16-.948.24-1.313.24-.273 0-.493-.071-.66-.212-.166-.142-.249-.36-.249-.657v-3.684h2.14v-1.566h-2.14V46.73h-1.333l-.601 1.614-1.149.697v.882h.998v3.684c0 .844.19 1.476.571 1.897.38.422.988.633 1.822.633zm5.318 0c.597 0 1.081-.086 1.453-.257.371-.17.732-.477 1.083-.92h.055L63.15 56h1.456v-5.093c0-.911-.273-1.59-.82-2.037-.547-.446-1.333-.67-2.358-.67-1.071 0-2.046.23-2.926.69l.69 1.409c.825-.37 1.543-.554 2.154-.554.793 0 1.19.387 1.19 1.162v.335l-1.327.041c-1.144.041-2 .254-2.567.64-.567.384-.851.983-.851 1.794 0 .775.21 1.372.632 1.79.422.42 1 .63 1.733.63zm.786-1.525c-.674 0-1.011-.294-1.011-.882 0-.41.148-.715.444-.916.296-.2.747-.31 1.354-.328l.806-.027v.629c0 .46-.145.83-.434 1.107-.29.278-.676.417-1.159.417zM68.838 56v-3.596c0-.902.13-1.548.39-1.938.26-.39.68-.584 1.264-.584.429 0 .74.138.937.413.196.276.294.69.294 1.241V56h2.085v-4.983c0-.907-.23-1.601-.69-2.082-.461-.48-1.136-.721-2.024-.721-.52 0-.983.094-1.391.284-.408.189-.728.468-.96.837h-.117l-.28-.978h-1.593V56h2.085zm9.734.137c.757 0 1.395-.116 1.914-.349v-1.552c-.51.16-.948.24-1.312.24-.274 0-.493-.071-.66-.212-.166-.142-.25-.36-.25-.657v-3.684h2.14v-1.566h-2.14V46.73h-1.332l-.602 1.614-1.148.697v.882h.998v3.684c0 .844.19 1.476.57 1.897.381.422.988.633 1.822.633z"/>
        <path fill="#45D189" fill-rule="nonzero" d="M104.25 163.137c.852 0 1.59-.148 2.215-.445.624-.296 1.102-.722 1.432-1.278.33-.556.496-1.203.496-1.941v-6.467h-2.113v6.104c0 .775-.156 1.344-.468 1.706-.312.362-.815.543-1.507.543-.716 0-1.229-.18-1.538-.54-.31-.36-.465-.925-.465-1.695v-6.118h-2.113v6.44c0 1.143.356 2.044 1.067 2.703.71.658 1.709.988 2.994.988zm9.885-.137l1.394-6.05h.048l.793 3.377.588 2.673h2.27l2.2-7.643h-2.043l-.916 3.384c-.046.2-.121.587-.226 1.159-.105.572-.178 1.022-.219 1.35h-.04c-.005-.128-.022-.297-.052-.51-.03-.211-.063-.428-.099-.649-.036-.22-.074-.43-.113-.625-.039-.196-.067-.344-.085-.445l-.896-3.664h-2.297l-.943 3.664-.11.582c-.14.751-.22 1.3-.239 1.647h-.04c-.146-1.066-.29-1.903-.431-2.509l-.882-3.384h-2.078l2.174 7.643h2.242zm14.246 0v-2.379l.895-.718 2.202 3.097h2.406l-3.22-4.327 3.035-3.316h-2.351l-2.14 2.325-.91 1.162h-.027l.11-1.737v-4.744h-2.085V163h2.085zm8.681 0v-10.637h-2.084V163h2.084zm4.047.137c.597 0 1.082-.086 1.453-.257.371-.17.733-.477 1.084-.92h.054l.404 1.04h1.456v-5.093c0-.911-.274-1.59-.82-2.037-.548-.446-1.334-.67-2.36-.67-1.07 0-2.045.23-2.925.69l.69 1.409c.825-.37 1.543-.554 2.154-.554.793 0 1.19.387 1.19 1.162v.335l-1.327.041c-1.144.041-2 .254-2.567.64-.567.384-.85.983-.85 1.794 0 .775.21 1.372.631 1.79.422.42 1 .63 1.733.63zm.787-1.525c-.675 0-1.012-.294-1.012-.882 0-.41.148-.715.444-.916.296-.2.748-.31 1.354-.328l.806-.027v.629c0 .46-.144.83-.434 1.107-.29.278-.675.417-1.158.417zM149.79 163v-3.596c0-.902.13-1.548.39-1.938.26-.39.681-.584 1.264-.584.429 0 .74.138.937.413.196.276.294.69.294 1.241V163h2.085v-4.983c0-.907-.23-1.601-.69-2.082-.461-.48-1.135-.721-2.024-.721-.52 0-.983.094-1.391.284-.408.189-.728.468-.96.837h-.117l-.28-.978h-1.593V163h2.085zm9.734.137c.757 0 1.395-.116 1.914-.349v-1.552c-.51.16-.947.24-1.312.24-.273 0-.493-.071-.66-.212-.166-.142-.25-.36-.25-.657v-3.684h2.14v-1.566h-2.14v-1.627h-1.332l-.602 1.614-1.148.697v.882h.998v3.684c0 .844.19 1.476.57 1.897.381.422.988.633 1.822.633z"/>
        <path fill="#FEBB1B" fill-rule="nonzero" d="M1087.151 15v-4.648c0-.534-.043-1.598-.13-3.193h.062l2.406 7.841h1.942l2.577-7.827h.061c-.054 1.258-.085 2.032-.092 2.324-.007.292-.01.55-.01.773V15h1.975V5.006h-2.884l-2.51 7.642h-.04l-2.365-7.642h-2.885V15h1.893zm12.189-8.593c.378 0 .662-.09.85-.27.19-.18.285-.432.285-.755 0-.68-.379-1.019-1.135-1.019-.757 0-1.135.34-1.135 1.019 0 .683.378 1.025 1.135 1.025zm1.039 8.593V7.357h-2.085V15h2.085zm3.233-8.593c.379 0 .662-.09.851-.27.19-.18.284-.432.284-.755 0-.68-.378-1.019-1.135-1.019-.756 0-1.134.34-1.134 1.019 0 .683.378 1.025 1.134 1.025zm-1.66 11.956c.86 0 1.526-.22 1.995-.66.47-.44.704-1.065.704-1.876v-8.47h-2.085v8.163c0 .382-.08.672-.242.868-.162.196-.418.294-.77.294-.332 0-.658-.044-.977-.13v1.64c.383.114.841.171 1.374.171zm6.972-3.363v-3.596c0-.902.13-1.548.39-1.938.26-.39.68-.584 1.264-.584.429 0 .74.138.937.413.196.276.294.69.294 1.241V15h2.085v-4.983c0-.907-.23-1.601-.69-2.082-.461-.48-1.136-.721-2.024-.721-.52 0-.984.094-1.391.284-.408.189-.728.468-.96.837h-.117l-.28-.978h-1.593V15h2.085zm9.495.137c1.157 0 2.061-.26 2.71-.78.65-.52.975-1.23.975-2.132 0-.652-.174-1.202-.52-1.651-.346-.45-.987-.897-1.92-1.344-.707-.337-1.155-.57-1.344-.7-.19-.13-.327-.265-.414-.404-.086-.139-.13-.301-.13-.488 0-.301.107-.545.322-.732.214-.187.521-.28.923-.28.337 0 .68.043 1.028.13.349.086.79.24 1.323.458l.684-1.648c-.515-.223-1.009-.396-1.48-.52-.472-.122-.968-.184-1.487-.184-1.057 0-1.886.253-2.485.76-.6.505-.899 1.2-.899 2.084 0 .47.091.88.274 1.23.182.351.426.66.731.923.305.265.763.54 1.374.828.652.31 1.083.535 1.295.676.212.142.373.289.482.441.11.153.164.327.164.523 0 .351-.124.615-.372.793-.249.178-.605.267-1.07.267-.387 0-.815-.062-1.282-.185-.467-.123-1.038-.335-1.712-.636v1.97c.82.4 1.764.6 2.83.6zm8.005 0c.524 0 .991-.097 1.401-.29.41-.194.727-.47.95-.825h.11l.28.978h1.6V7.357h-2.085v3.596c0 .902-.13 1.548-.39 1.938-.26.39-.681.585-1.265.585-.428 0-.74-.138-.936-.414-.196-.276-.294-.69-.294-1.24V7.356h-2.085v4.984c0 .902.228 1.594.684 2.075.455.48 1.132.72 2.03.72zm10.725 0c.907 0 1.624-.347 2.15-1.04.527-.692.79-1.67.79-2.932 0-1.226-.255-2.19-.766-2.895-.51-.704-1.217-1.056-2.119-1.056-.957 0-1.68.378-2.167 1.135h-.082c.055-.693.082-1.197.082-1.511V4.363h-2.085V15h1.593l.349-.84h.143c.51.65 1.215.977 2.112.977zm-.587-1.689c-.53 0-.915-.177-1.16-.533-.243-.355-.365-.943-.365-1.764v-.225c.01-.73.132-1.252.37-1.57.236-.316.612-.474 1.127-.474.442 0 .79.188 1.046.564.255.376.383.94.383 1.692s-.127 1.325-.38 1.719c-.252.394-.593.591-1.021.591zm7.32 1.689c1.085 0 1.9-.205 2.445-.616.544-.41.817-1.007.817-1.79 0-.379-.067-.705-.199-.978-.132-.274-.337-.515-.615-.725-.278-.21-.715-.435-1.312-.676-.67-.27-1.104-.472-1.303-.609-.198-.137-.297-.298-.297-.485 0-.333.308-.5.923-.5.346 0 .686.053 1.018.158.333.105.69.24 1.074.403l.629-1.504c-.87-.4-1.766-.601-2.687-.601-.966 0-1.712.186-2.239.557-.526.371-.79.897-.79 1.576 0 .396.063.73.189 1.001.125.271.326.512.601.721.276.21.708.438 1.296.684.41.173.738.325.984.455s.42.246.52.348c.1.103.15.236.15.4 0 .438-.378.656-1.135.656-.369 0-.796-.061-1.282-.184-.485-.123-.921-.276-1.309-.458v1.722c.342.146.709.257 1.1.332.393.075.867.113 1.423.113zm5.934-8.73c.379 0 .662-.09.851-.27.19-.18.284-.432.284-.755 0-.68-.378-1.019-1.135-1.019-.756 0-1.134.34-1.134 1.019 0 .683.378 1.025 1.134 1.025zm1.04 8.593V7.357h-2.085V15h2.084zm4.607.137c.97 0 1.693-.376 2.167-1.128h.089l.403.991h1.6V4.363h-2.092v2.448c0 .446.052.954.157 1.524h-.068c-.506-.747-1.24-1.121-2.201-1.121-.916 0-1.635.35-2.157 1.05-.522.699-.783 1.675-.783 2.928 0 1.235.256 2.202.77 2.899.512.697 1.217 1.046 2.115 1.046zm.731-1.661c-.483 0-.854-.188-1.114-.564-.26-.376-.39-.94-.39-1.692s.13-1.325.387-1.72c.257-.394.618-.59 1.083-.59.57 0 .981.177 1.234.532.253.356.38.944.38 1.764v.226c-.023.742-.159 1.269-.407 1.579-.249.31-.64.465-1.173.465zm6.754-7.069c.378 0 .662-.09.851-.27.19-.18.284-.432.284-.755 0-.68-.378-1.019-1.135-1.019-.756 0-1.135.34-1.135 1.019 0 .683.379 1.025 1.135 1.025zm1.04 8.593V7.357h-2.086V15h2.085zm5.646.137c.597 0 1.103-.045 1.517-.134.415-.088.805-.224 1.17-.406v-1.614c-.447.21-.876.363-1.286.458-.41.096-.845.144-1.306.144-.592 0-1.052-.166-1.38-.5-.328-.332-.504-.794-.527-1.387h4.929v-1.011c0-1.085-.3-1.935-.902-2.55-.602-.616-1.443-.923-2.523-.923-1.13 0-2.015.35-2.656 1.05-.64.699-.96 1.689-.96 2.97 0 1.244.346 2.205 1.039 2.884.693.68 1.654 1.019 2.885 1.019zm1.162-4.826h-2.926c.037-.515.18-.913.43-1.193.251-.28.598-.42 1.04-.42.442 0 .793.14 1.053.42.26.28.394.678.403 1.193z"/>
        <path fill="#FEBB1B" d="M783.36 345.04l-8.563-12.844c-.235-.354-.14-.831.214-1.067.126-.084.274-.129.426-.129h17.126c.425 0 .769.344.769.77 0 .151-.045.3-.13.426l-8.562 12.844c-.236.353-.713.449-1.067.213-.084-.056-.157-.129-.213-.213z"/>
        <path fill="#45D189" d="M605.36 345.04l-8.563-12.844c-.235-.354-.14-.831.214-1.067.126-.084.274-.129.426-.129h17.126c.425 0 .769.344.769.77 0 .151-.045.3-.13.426l-8.562 12.844c-.236.353-.713.449-1.067.213-.084-.056-.157-.129-.213-.213z"/>
        <path fill="#476FFF" d="M426.36 345.04l-8.563-12.844c-.235-.354-.14-.831.214-1.067.126-.084.274-.129.426-.129h17.126c.425 0 .769.344.769.77 0 .151-.045.3-.13.426l-8.562 12.844c-.236.353-.713.449-1.067.213-.084-.056-.157-.129-.213-.213z"/>
    </g>
</svg>
