<?xml version="1.0" encoding="UTF-8"?>
<svg width="166px" height="125px" viewBox="0 0 166 125" version="1.1" xmlns="http://www.w3.org/2000/svg" xmlns:xlink="http://www.w3.org/1999/xlink">
    <!-- Generator: Sketch 64 (93537) - https://sketch.com -->
    <title>atoms/flakes/flake 4</title>
    <desc>Created with Sketch.</desc>
    <g id="Page-1" stroke="none" stroke-width="1" fill="none" fill-rule="evenodd">
        <g id="design---over-ons" transform="translate(-1203.000000, -805.000000)" fill="#45D189" fill-rule="nonzero">
            <g id="section---hero" transform="translate(68.000000, 53.000000)">
                <g id="section---fotos" transform="translate(0.000000, 420.000000)">
                    <g id="image" transform="translate(900.000000, 0.000000)">
                        <g id="atoms/flakes/flake-4" transform="translate(224.000000, 321.000000)">
                            <path d="M13.6568542,13.6568542 L122.343146,122.343146 C125.46734,125.46734 125.46734,130.53266 122.343146,133.656854 C120.842855,135.157145 118.808023,136 116.686292,136 L8,136 C3.581722,136 5.41083001e-16,132.418278 0,128 L0,19.3137085 C-8.72044152e-15,14.8954305 3.581722,11.3137085 8,11.3137085 C10.1217319,11.3137085 12.1565632,12.1565632 13.6568542,13.6568542 Z" id="Rectangle" transform="translate(68.000000, 68.000000) scale(-1, 1) translate(-68.000000, -68.000000) "></path>
                            <path d="M104,113 C106.209139,113 108,114.790861 108,117 C108,119.209139 106.209139,121 104,121 C101.790861,121 100,119.209139 100,117 C100,114.790861 101.790861,113 104,113 Z M127,113 C129.209139,113 131,114.790861 131,117 C131,119.209139 129.209139,121 127,121 C124.790861,121 123,119.209139 123,117 C123,114.790861 124.790861,113 127,113 Z M150,113 C152.209139,113 154,114.790861 154,117 C154,119.209139 152.209139,121 150,121 C147.790861,121 146,119.209139 146,117 C146,114.790861 147.790861,113 150,113 Z M173,113 C175.209139,113 177,114.790861 177,117 C177,119.209139 175.209139,121 173,121 C170.790861,121 169,119.209139 169,117 C169,114.790861 170.790861,113 173,113 Z M104,91 C106.209139,91 108,92.790861 108,95 C108,97.209139 106.209139,99 104,99 C101.790861,99 100,97.209139 100,95 C100,92.790861 101.790861,91 104,91 Z M127,91 C129.209139,91 131,92.790861 131,95 C131,97.209139 129.209139,99 127,99 C124.790861,99 123,97.209139 123,95 C123,92.790861 124.790861,91 127,91 Z M150,91 C152.209139,91 154,92.790861 154,95 C154,97.209139 152.209139,99 150,99 C147.790861,99 146,97.209139 146,95 C146,92.790861 147.790861,91 150,91 Z M173,91 C175.209139,91 177,92.790861 177,95 C177,97.209139 175.209139,99 173,99 C170.790861,99 169,97.209139 169,95 C169,92.790861 170.790861,91 173,91 Z M104,68 C106.209139,68 108,69.790861 108,72 C108,74.209139 106.209139,76 104,76 C101.790861,76 100,74.209139 100,72 C100,69.790861 101.790861,68 104,68 Z M127,68 C129.209139,68 131,69.790861 131,72 C131,74.209139 129.209139,76 127,76 C124.790861,76 123,74.209139 123,72 C123,69.790861 124.790861,68 127,68 Z M150,68 C152.209139,68 154,69.790861 154,72 C154,74.209139 152.209139,76 150,76 C147.790861,76 146,74.209139 146,72 C146,69.790861 147.790861,68 150,68 Z M173,68 C175.209139,68 177,69.790861 177,72 C177,74.209139 175.209139,76 173,76 C170.790861,76 169,74.209139 169,72 C169,69.790861 170.790861,68 173,68 Z M104,46 C106.209139,46 108,47.790861 108,50 C108,52.209139 106.209139,54 104,54 C101.790861,54 100,52.209139 100,50 C100,47.790861 101.790861,46 104,46 Z M127,46 C129.209139,46 131,47.790861 131,50 C131,52.209139 129.209139,54 127,54 C124.790861,54 123,52.209139 123,50 C123,47.790861 124.790861,46 127,46 Z M150,46 C152.209139,46 154,47.790861 154,50 C154,52.209139 152.209139,54 150,54 C147.790861,54 146,52.209139 146,50 C146,47.790861 147.790861,46 150,46 Z M173,46 C175.209139,46 177,47.790861 177,50 C177,52.209139 175.209139,54 173,54 C170.790861,54 169,52.209139 169,50 C169,47.790861 170.790861,46 173,46 Z" id="Combined-Shape"></path>
                        </g>
                    </g>
                </g>
            </g>
        </g>
    </g>
</svg>