<?xml version="1.0" encoding="UTF-8"?>
<svg width="232px" height="196px" viewBox="0 0 232 196" version="1.1" xmlns="http://www.w3.org/2000/svg" xmlns:xlink="http://www.w3.org/1999/xlink">
    <!-- Generator: Sketch 64 (93537) - https://sketch.com -->
    <title>Group</title>
    <desc>Created with Sketch.</desc>
    <g id="Symbols" stroke="none" stroke-width="1" fill="none" fill-rule="evenodd">
        <g id="atoms/flakes/flake-3" fill="#476FFF" fill-rule="nonzero">
            <g id="Group">
                <rect id="Rectangle" x="39" y="17" width="193" height="179" rx="8"></rect>
                <path d="M4,67 C6.209139,67 8,68.790861 8,71 C8,73.209139 6.209139,75 4,75 C1.790861,75 -1.5187851e-13,73.209139 -1.5187851e-13,71 C-1.5187851e-13,68.790861 1.790861,67 4,67 Z M27,67 C29.209139,67 31,68.790861 31,71 C31,73.209139 29.209139,75 27,75 C24.790861,75 23,73.209139 23,71 C23,68.790861 24.790861,67 27,67 Z M50,67 C52.209139,67 54,68.790861 54,71 C54,73.209139 52.209139,75 50,75 C47.790861,75 46,73.209139 46,71 C46,68.790861 47.790861,67 50,67 Z M73,67 C75.209139,67 77,68.790861 77,71 C77,73.209139 75.209139,75 73,75 C70.790861,75 69,73.209139 69,71 C69,68.790861 70.790861,67 73,67 Z M4,45 C6.209139,45 8,46.790861 8,49 C8,51.209139 6.209139,53 4,53 C1.790861,53 -1.5187851e-13,51.209139 -1.5187851e-13,49 C-1.5187851e-13,46.790861 1.790861,45 4,45 Z M27,45 C29.209139,45 31,46.790861 31,49 C31,51.209139 29.209139,53 27,53 C24.790861,53 23,51.209139 23,49 C23,46.790861 24.790861,45 27,45 Z M50,45 C52.209139,45 54,46.790861 54,49 C54,51.209139 52.209139,53 50,53 C47.790861,53 46,51.209139 46,49 C46,46.790861 47.790861,45 50,45 Z M73,45 C75.209139,45 77,46.790861 77,49 C77,51.209139 75.209139,53 73,53 C70.790861,53 69,51.209139 69,49 C69,46.790861 70.790861,45 73,45 Z M4,22 C6.209139,22 8,23.790861 8,26 C8,28.209139 6.209139,30 4,30 C1.790861,30 -1.5187851e-13,28.209139 -1.5187851e-13,26 C-1.5187851e-13,23.790861 1.790861,22 4,22 Z M27,22 C29.209139,22 31,23.790861 31,26 C31,28.209139 29.209139,30 27,30 C24.790861,30 23,28.209139 23,26 C23,23.790861 24.790861,22 27,22 Z M50,22 C52.209139,22 54,23.790861 54,26 C54,28.209139 52.209139,30 50,30 C47.790861,30 46,28.209139 46,26 C46,23.790861 47.790861,22 50,22 Z M73,22 C75.209139,22 77,23.790861 77,26 C77,28.209139 75.209139,30 73,30 C70.790861,30 69,28.209139 69,26 C69,23.790861 70.790861,22 73,22 Z M4,9.68114477e-14 C6.209139,9.68114477e-14 8,1.790861 8,4 C8,6.209139 6.209139,8 4,8 C1.790861,8 -1.5187851e-13,6.209139 -1.5187851e-13,4 C-1.5187851e-13,1.790861 1.790861,9.68114477e-14 4,9.68114477e-14 Z M27,9.68114477e-14 C29.209139,9.68114477e-14 31,1.790861 31,4 C31,6.209139 29.209139,8 27,8 C24.790861,8 23,6.209139 23,4 C23,1.790861 24.790861,9.68114477e-14 27,9.68114477e-14 Z M50,9.68114477e-14 C52.209139,9.68114477e-14 54,1.790861 54,4 C54,6.209139 52.209139,8 50,8 C47.790861,8 46,6.209139 46,4 C46,1.790861 47.790861,9.68114477e-14 50,9.68114477e-14 Z M73,9.68114477e-14 C75.209139,9.68114477e-14 77,1.790861 77,4 C77,6.209139 75.209139,8 73,8 C70.790861,8 69,6.209139 69,4 C69,1.790861 70.790861,9.68114477e-14 73,9.68114477e-14 Z" id="Combined-Shape"></path>
                <path d="M4,156 C6.209139,156 8,157.790861 8,160 C8,162.209139 6.209139,164 4,164 C1.790861,164 -1.5187851e-13,162.209139 -1.5187851e-13,160 C-1.5187851e-13,157.790861 1.790861,156 4,156 Z M27,156 C29.209139,156 31,157.790861 31,160 C31,162.209139 29.209139,164 27,164 C24.790861,164 23,162.209139 23,160 C23,157.790861 24.790861,156 27,156 Z M50,156 C52.209139,156 54,157.790861 54,160 C54,162.209139 52.209139,164 50,164 C47.790861,164 46,162.209139 46,160 C46,157.790861 47.790861,156 50,156 Z M73,156 C75.209139,156 77,157.790861 77,160 C77,162.209139 75.209139,164 73,164 C70.790861,164 69,162.209139 69,160 C69,157.790861 70.790861,156 73,156 Z M4,134 C6.209139,134 8,135.790861 8,138 C8,140.209139 6.209139,142 4,142 C1.790861,142 -1.5187851e-13,140.209139 -1.5187851e-13,138 C-1.5187851e-13,135.790861 1.790861,134 4,134 Z M27,134 C29.209139,134 31,135.790861 31,138 C31,140.209139 29.209139,142 27,142 C24.790861,142 23,140.209139 23,138 C23,135.790861 24.790861,134 27,134 Z M50,134 C52.209139,134 54,135.790861 54,138 C54,140.209139 52.209139,142 50,142 C47.790861,142 46,140.209139 46,138 C46,135.790861 47.790861,134 50,134 Z M73,134 C75.209139,134 77,135.790861 77,138 C77,140.209139 75.209139,142 73,142 C70.790861,142 69,140.209139 69,138 C69,135.790861 70.790861,134 73,134 Z M4,111 C6.209139,111 8,112.790861 8,115 C8,117.209139 6.209139,119 4,119 C1.790861,119 -1.5187851e-13,117.209139 -1.5187851e-13,115 C-1.5187851e-13,112.790861 1.790861,111 4,111 Z M27,111 C29.209139,111 31,112.790861 31,115 C31,117.209139 29.209139,119 27,119 C24.790861,119 23,117.209139 23,115 C23,112.790861 24.790861,111 27,111 Z M50,111 C52.209139,111 54,112.790861 54,115 C54,117.209139 52.209139,119 50,119 C47.790861,119 46,117.209139 46,115 C46,112.790861 47.790861,111 50,111 Z M73,111 C75.209139,111 77,112.790861 77,115 C77,117.209139 75.209139,119 73,119 C70.790861,119 69,117.209139 69,115 C69,112.790861 70.790861,111 73,111 Z M4,89 C6.209139,89 8,90.790861 8,93 C8,95.209139 6.209139,97 4,97 C1.790861,97 -1.5187851e-13,95.209139 -1.5187851e-13,93 C-1.5187851e-13,90.790861 1.790861,89 4,89 Z M27,89 C29.209139,89 31,90.790861 31,93 C31,95.209139 29.209139,97 27,97 C24.790861,97 23,95.209139 23,93 C23,90.790861 24.790861,89 27,89 Z M50,89 C52.209139,89 54,90.790861 54,93 C54,95.209139 52.209139,97 50,97 C47.790861,97 46,95.209139 46,93 C46,90.790861 47.790861,89 50,89 Z M73,89 C75.209139,89 77,90.790861 77,93 C77,95.209139 75.209139,97 73,97 C70.790861,97 69,95.209139 69,93 C69,90.790861 70.790861,89 73,89 Z" id="Combined-Shape"></path>
            </g>
        </g>
    </g>
</svg>