<?xml version="1.0" encoding="UTF-8"?>
<svg width="77px" height="75px" viewBox="0 0 77 75" version="1.1" xmlns="http://www.w3.org/2000/svg" xmlns:xlink="http://www.w3.org/1999/xlink">
    <!-- Generator: Sketch 64 (93537) - https://sketch.com -->
    <title>Combined Shape</title>
    <desc>Created with Sketch.</desc>
    <g id="Page-1" stroke="none" stroke-width="1" fill="none" fill-rule="evenodd">
        <g id="Artboard" transform="translate(-273.000000, -519.000000)" fill="#FFBC1C" fill-rule="nonzero">
            <g id="atoms/flakes/flake-3-copy" transform="translate(282.000000, 582.000000) scale(-1, 1) translate(-282.000000, -582.000000) translate(214.000000, 519.000000)">
                <g id="Group-4">
                    <path d="M4,67 C6.209139,67 8,68.790861 8,71 C8,73.209139 6.209139,75 4,75 C1.790861,75 -1.5187851e-13,73.209139 -1.5187851e-13,71 C-1.5187851e-13,68.790861 1.790861,67 4,67 Z M27,67 C29.209139,67 31,68.790861 31,71 C31,73.209139 29.209139,75 27,75 C24.790861,75 23,73.209139 23,71 C23,68.790861 24.790861,67 27,67 Z M50,67 C52.209139,67 54,68.790861 54,71 C54,73.209139 52.209139,75 50,75 C47.790861,75 46,73.209139 46,71 C46,68.790861 47.790861,67 50,67 Z M73,67 C75.209139,67 77,68.790861 77,71 C77,73.209139 75.209139,75 73,75 C70.790861,75 69,73.209139 69,71 C69,68.790861 70.790861,67 73,67 Z M4,45 C6.209139,45 8,46.790861 8,49 C8,51.209139 6.209139,53 4,53 C1.790861,53 -1.5187851e-13,51.209139 -1.5187851e-13,49 C-1.5187851e-13,46.790861 1.790861,45 4,45 Z M27,45 C29.209139,45 31,46.790861 31,49 C31,51.209139 29.209139,53 27,53 C24.790861,53 23,51.209139 23,49 C23,46.790861 24.790861,45 27,45 Z M50,45 C52.209139,45 54,46.790861 54,49 C54,51.209139 52.209139,53 50,53 C47.790861,53 46,51.209139 46,49 C46,46.790861 47.790861,45 50,45 Z M73,45 C75.209139,45 77,46.790861 77,49 C77,51.209139 75.209139,53 73,53 C70.790861,53 69,51.209139 69,49 C69,46.790861 70.790861,45 73,45 Z M4,22 C6.209139,22 8,23.790861 8,26 C8,28.209139 6.209139,30 4,30 C1.790861,30 -1.5187851e-13,28.209139 -1.5187851e-13,26 C-1.5187851e-13,23.790861 1.790861,22 4,22 Z M27,22 C29.209139,22 31,23.790861 31,26 C31,28.209139 29.209139,30 27,30 C24.790861,30 23,28.209139 23,26 C23,23.790861 24.790861,22 27,22 Z M50,22 C52.209139,22 54,23.790861 54,26 C54,28.209139 52.209139,30 50,30 C47.790861,30 46,28.209139 46,26 C46,23.790861 47.790861,22 50,22 Z M73,22 C75.209139,22 77,23.790861 77,26 C77,28.209139 75.209139,30 73,30 C70.790861,30 69,28.209139 69,26 C69,23.790861 70.790861,22 73,22 Z M4,9.68114477e-14 C6.209139,9.68114477e-14 8,1.790861 8,4 C8,6.209139 6.209139,8 4,8 C1.790861,8 -1.5187851e-13,6.209139 -1.5187851e-13,4 C-1.5187851e-13,1.790861 1.790861,9.68114477e-14 4,9.68114477e-14 Z M27,9.68114477e-14 C29.209139,9.68114477e-14 31,1.790861 31,4 C31,6.209139 29.209139,8 27,8 C24.790861,8 23,6.209139 23,4 C23,1.790861 24.790861,9.68114477e-14 27,9.68114477e-14 Z M50,9.68114477e-14 C52.209139,9.68114477e-14 54,1.790861 54,4 C54,6.209139 52.209139,8 50,8 C47.790861,8 46,6.209139 46,4 C46,1.790861 47.790861,9.68114477e-14 50,9.68114477e-14 Z M73,9.68114477e-14 C75.209139,9.68114477e-14 77,1.790861 77,4 C77,6.209139 75.209139,8 73,8 C70.790861,8 69,6.209139 69,4 C69,1.790861 70.790861,9.68114477e-14 73,9.68114477e-14 Z" id="Combined-Shape"></path>
                </g>
            </g>
        </g>
    </g>
</svg>