<svg width="126" height="101" xmlns="http://www.w3.org/2000/svg">
    <g transform="rotate(180 63 50.5)" fill="#476FFF" fill-rule="nonzero">
        <rect x="39" y="14" width="87" height="87" rx="8"/>
        <path d="M4 67a4 4 0 1 1 0 8 4 4 0 0 1 0-8zm23 0a4 4 0 1 1 0 8 4 4 0 0 1 0-8zm23 0a4 4 0 1 1 0 8 4 4 0 0 1 0-8zm23 0a4 4 0 1 1 0 8 4 4 0 0 1 0-8zM4 45a4 4 0 1 1 0 8 4 4 0 0 1 0-8zm23 0a4 4 0 1 1 0 8 4 4 0 0 1 0-8zm23 0a4 4 0 1 1 0 8 4 4 0 0 1 0-8zm23 0a4 4 0 1 1 0 8 4 4 0 0 1 0-8zM4 22a4 4 0 1 1 0 8 4 4 0 0 1 0-8zm23 0a4 4 0 1 1 0 8 4 4 0 0 1 0-8zm23 0a4 4 0 1 1 0 8 4 4 0 0 1 0-8zm23 0a4 4 0 1 1 0 8 4 4 0 0 1 0-8zM4 0a4 4 0 1 1 0 8 4 4 0 0 1 0-8zm23 0a4 4 0 1 1 0 8 4 4 0 0 1 0-8zm23 0a4 4 0 1 1 0 8 4 4 0 0 1 0-8zm23 0a4 4 0 1 1 0 8 4 4 0 0 1 0-8z"/>
    </g>
</svg>
