<?xml version="1.0" encoding="UTF-8"?>
<svg width="161px" height="77px" viewBox="0 0 161 77" version="1.1" xmlns="http://www.w3.org/2000/svg" xmlns:xlink="http://www.w3.org/1999/xlink">
    <!-- Generator: Sketch 64 (93537) - https://sketch.com -->
    <title>Group 31</title>
    <desc>Created with Sketch.</desc>
    <g id="Page-1" stroke="none" stroke-width="1" fill="none" fill-rule="evenodd">
        <g id="00.-home" transform="translate(-524.000000, -1163.000000)" fill-rule="nonzero">
            <g id="section---video" transform="translate(240.000000, 889.000000)">
                <g id="Group-22">
                    <g id="Group-31" transform="translate(285.175865, 274.000000)">
                        <path d="M86.8241346,67 C89.0332736,67 90.8241346,68.790861 90.8241346,71 C90.8241346,73.209139 89.0332736,75 86.8241346,75 C84.6149956,75 82.8241346,73.209139 82.8241346,71 C82.8241346,68.790861 84.6149956,67 86.8241346,67 Z M109.824135,67 C112.033274,67 113.824135,68.790861 113.824135,71 C113.824135,73.209139 112.033274,75 109.824135,75 C107.614996,75 105.824135,73.209139 105.824135,71 C105.824135,68.790861 107.614996,67 109.824135,67 Z M132.824135,67 C135.033274,67 136.824135,68.790861 136.824135,71 C136.824135,73.209139 135.033274,75 132.824135,75 C130.614996,75 128.824135,73.209139 128.824135,71 C128.824135,68.790861 130.614996,67 132.824135,67 Z M155.824135,67 C158.033274,67 159.824135,68.790861 159.824135,71 C159.824135,73.209139 158.033274,75 155.824135,75 C153.614996,75 151.824135,73.209139 151.824135,71 C151.824135,68.790861 153.614996,67 155.824135,67 Z M86.8241346,45 C89.0332736,45 90.8241346,46.790861 90.8241346,49 C90.8241346,51.209139 89.0332736,53 86.8241346,53 C84.6149956,53 82.8241346,51.209139 82.8241346,49 C82.8241346,46.790861 84.6149956,45 86.8241346,45 Z M109.824135,45 C112.033274,45 113.824135,46.790861 113.824135,49 C113.824135,51.209139 112.033274,53 109.824135,53 C107.614996,53 105.824135,51.209139 105.824135,49 C105.824135,46.790861 107.614996,45 109.824135,45 Z M132.824135,45 C135.033274,45 136.824135,46.790861 136.824135,49 C136.824135,51.209139 135.033274,53 132.824135,53 C130.614996,53 128.824135,51.209139 128.824135,49 C128.824135,46.790861 130.614996,45 132.824135,45 Z M155.824135,45 C158.033274,45 159.824135,46.790861 159.824135,49 C159.824135,51.209139 158.033274,53 155.824135,53 C153.614996,53 151.824135,51.209139 151.824135,49 C151.824135,46.790861 153.614996,45 155.824135,45 Z M86.8241346,22 C89.0332736,22 90.8241346,23.790861 90.8241346,26 C90.8241346,28.209139 89.0332736,30 86.8241346,30 C84.6149956,30 82.8241346,28.209139 82.8241346,26 C82.8241346,23.790861 84.6149956,22 86.8241346,22 Z M109.824135,22 C112.033274,22 113.824135,23.790861 113.824135,26 C113.824135,28.209139 112.033274,30 109.824135,30 C107.614996,30 105.824135,28.209139 105.824135,26 C105.824135,23.790861 107.614996,22 109.824135,22 Z M132.824135,22 C135.033274,22 136.824135,23.790861 136.824135,26 C136.824135,28.209139 135.033274,30 132.824135,30 C130.614996,30 128.824135,28.209139 128.824135,26 C128.824135,23.790861 130.614996,22 132.824135,22 Z M155.824135,22 C158.033274,22 159.824135,23.790861 159.824135,26 C159.824135,28.209139 158.033274,30 155.824135,30 C153.614996,30 151.824135,28.209139 151.824135,26 C151.824135,23.790861 153.614996,22 155.824135,22 Z M86.8241346,9.68114477e-14 C89.0332736,9.68114477e-14 90.8241346,1.790861 90.8241346,4 C90.8241346,6.209139 89.0332736,8 86.8241346,8 C84.6149956,8 82.8241346,6.209139 82.8241346,4 C82.8241346,1.790861 84.6149956,9.68114477e-14 86.8241346,9.68114477e-14 Z M109.824135,9.68114477e-14 C112.033274,9.68114477e-14 113.824135,1.790861 113.824135,4 C113.824135,6.209139 112.033274,8 109.824135,8 C107.614996,8 105.824135,6.209139 105.824135,4 C105.824135,1.790861 107.614996,9.68114477e-14 109.824135,9.68114477e-14 Z M132.824135,9.68114477e-14 C135.033274,9.68114477e-14 136.824135,1.790861 136.824135,4 C136.824135,6.209139 135.033274,8 132.824135,8 C130.614996,8 128.824135,6.209139 128.824135,4 C128.824135,1.790861 130.614996,9.68114477e-14 132.824135,9.68114477e-14 Z M155.824135,9.68114477e-14 C158.033274,9.68114477e-14 159.824135,1.790861 159.824135,4 C159.824135,6.209139 158.033274,8 155.824135,8 C153.614996,8 151.824135,6.209139 151.824135,4 C151.824135,1.790861 153.614996,9.68114477e-14 155.824135,9.68114477e-14 Z" id="Combined-Shape" fill="#652BD9"></path>
                        <line x1="0.5" y1="26" x2="0.5" y2="82.7503408" id="Path-7" stroke="#D8DCE3" stroke-width="3" stroke-linecap="round" stroke-dasharray="0,12"></line>
                    </g>
                </g>
            </g>
        </g>
    </g>
</svg>