<?xml version="1.0" encoding="UTF-8"?>
<svg width="307px" height="129px" viewBox="0 0 307 129" version="1.1" xmlns="http://www.w3.org/2000/svg" xmlns:xlink="http://www.w3.org/1999/xlink">
    <!-- Generator: Sketch 64 (93537) - https://sketch.com -->
    <title>Group 35</title>
    <desc>Created with Sketch.</desc>
    <g id="Page-1" stroke="none" stroke-width="1" fill="none" fill-rule="evenodd">
        <g id="00.-home" transform="translate(-747.000000, -2642.000000)" fill="#476FFF" fill-rule="nonzero">
            <g id="Group-5" transform="translate(128.000000, 2561.000000)">
                <g id="Group-16" transform="translate(372.000000, 73.000000)">
                    <g id="Group-35" transform="translate(247.000000, 8.000000)">
                        <circle id="Oval" cx="242.5" cy="64.5" r="64.5"></circle>
                        <path d="M4,107 C6.209139,107 8,108.790861 8,111 C8,113.209139 6.209139,115 4,115 C1.790861,115 1.24344979e-14,113.209139 1.24344979e-14,111 C1.24344979e-14,108.790861 1.790861,107 4,107 Z M27,107 C29.209139,107 31,108.790861 31,111 C31,113.209139 29.209139,115 27,115 C24.790861,115 23,113.209139 23,111 C23,108.790861 24.790861,107 27,107 Z M4,85 C6.209139,85 8,86.790861 8,89 C8,91.209139 6.209139,93 4,93 C1.790861,93 1.24344979e-14,91.209139 1.24344979e-14,89 C1.24344979e-14,86.790861 1.790861,85 4,85 Z M27,85 C29.209139,85 31,86.790861 31,89 C31,91.209139 29.209139,93 27,93 C24.790861,93 23,91.209139 23,89 C23,86.790861 24.790861,85 27,85 Z M4,62 C6.209139,62 8,63.790861 8,66 C8,68.209139 6.209139,70 4,70 C1.790861,70 1.24344979e-14,68.209139 1.24344979e-14,66 C1.24344979e-14,63.790861 1.790861,62 4,62 Z M27,62 C29.209139,62 31,63.790861 31,66 C31,68.209139 29.209139,70 27,70 C24.790861,70 23,68.209139 23,66 C23,63.790861 24.790861,62 27,62 Z M4,40 C6.209139,40 8,41.790861 8,44 C8,46.209139 6.209139,48 4,48 C1.790861,48 1.24344979e-14,46.209139 1.24344979e-14,44 C1.24344979e-14,41.790861 1.790861,40 4,40 Z M27,40 C29.209139,40 31,41.790861 31,44 C31,46.209139 29.209139,48 27,48 C24.790861,48 23,46.209139 23,44 C23,41.790861 24.790861,40 27,40 Z" id="Combined-Shape"></path>
                    </g>
                </g>
            </g>
        </g>
    </g>
</svg>