<?xml version="1.0" encoding="UTF-8"?>
<svg width="673px" height="538px" viewBox="0 0 673 538" version="1.1" xmlns="http://www.w3.org/2000/svg" xmlns:xlink="http://www.w3.org/1999/xlink">
    <!-- Generator: Sketch 64 (93537) - https://sketch.com -->
    <title>Group 3</title>
    <desc>Created with Sketch.</desc>
    <g id="Page-1" stroke="none" stroke-width="1" fill="none" fill-rule="evenodd" stroke-dasharray="0,12" stroke-linecap="round">
        <g id="design---over-ons" transform="translate(-767.000000, -51.000000)" fill-rule="nonzero" stroke="#D8DCE3" stroke-width="3">
            <g id="section---hero" transform="translate(68.000000, 53.000000)">
                <g id="lines" transform="translate(347.000000, 0.000000)">
                    <g id="Group-3" transform="translate(353.710938, 0.000000)">
                        <path d="M407.289062,533.874022 L631,533.874022 L631,446.408881 C631,443.647457 633.238576,441.408881 636,441.408881 L785.6,441.408881 C788.361424,441.408881 790.6,439.170304 790.6,436.408881 L790.6,370.874022 L790.6,370.874022 L790.6,8.55078125 L499.09671,8.55078125" id="Path-2" transform="translate(598.944531, 271.212401) scale(-1, -1) translate(-598.944531, -271.212401) "></path>
                        <path d="M-1.42108547e-14,492.550781 L-1.42108547e-14,441 L-1.42108547e-14,353.534859 C-1.36608532e-14,350.773435 2.23857625,348.534859 5,348.534859 L154.6,348.534859 C157.361424,348.534859 159.6,346.296283 159.6,343.534859 L159.6,278 L159.6,278 L159.6,0 L251.867088,0" id="Path-2" transform="translate(125.933544, 246.275391) scale(1, -1) translate(-125.933544, -246.275391) "></path>
                    </g>
                </g>
            </g>
        </g>
    </g>
</svg>