<?xml version="1.0" encoding="UTF-8"?>
<svg width="212px" height="284px" viewBox="0 0 212 284" version="1.1" xmlns="http://www.w3.org/2000/svg" xmlns:xlink="http://www.w3.org/1999/xlink">
    <!-- Generator: Sketch 64 (93537) - https://sketch.com -->
    <title>Group 2</title>
    <desc>Created with Sketch.</desc>
    <g id="Page-1" stroke="none" stroke-width="1" fill="none" fill-rule="evenodd">
        <g id="Artboard" transform="translate(-1436.000000, -214.000000)" fill-rule="nonzero">
            <g id="Group-2" transform="translate(1438.000000, 206.000000)">
                <path d="M1.42108547e-14,157 L178.00951,157 L178.00951,0" id="Path-6" stroke="#C0CDFB" stroke-width="3" stroke-linecap="round" stroke-dasharray="0,12"></path>
                <path d="M137,284 C139.209139,284 141,285.790861 141,288 C141,290.209139 139.209139,292 137,292 C134.790861,292 133,290.209139 133,288 C133,285.790861 134.790861,284 137,284 Z M160,284 C162.209139,284 164,285.790861 164,288 C164,290.209139 162.209139,292 160,292 C157.790861,292 156,290.209139 156,288 C156,285.790861 157.790861,284 160,284 Z M183,284 C185.209139,284 187,285.790861 187,288 C187,290.209139 185.209139,292 183,292 C180.790861,292 179,290.209139 179,288 C179,285.790861 180.790861,284 183,284 Z M206,284 C208.209139,284 210,285.790861 210,288 C210,290.209139 208.209139,292 206,292 C203.790861,292 202,290.209139 202,288 C202,285.790861 203.790861,284 206,284 Z M137,262 C139.209139,262 141,263.790861 141,266 C141,268.209139 139.209139,270 137,270 C134.790861,270 133,268.209139 133,266 C133,263.790861 134.790861,262 137,262 Z M160,262 C162.209139,262 164,263.790861 164,266 C164,268.209139 162.209139,270 160,270 C157.790861,270 156,268.209139 156,266 C156,263.790861 157.790861,262 160,262 Z M183,262 C185.209139,262 187,263.790861 187,266 C187,268.209139 185.209139,270 183,270 C180.790861,270 179,268.209139 179,266 C179,263.790861 180.790861,262 183,262 Z M206,262 C208.209139,262 210,263.790861 210,266 C210,268.209139 208.209139,270 206,270 C203.790861,270 202,268.209139 202,266 C202,263.790861 203.790861,262 206,262 Z M137,239 C139.209139,239 141,240.790861 141,243 C141,245.209139 139.209139,247 137,247 C134.790861,247 133,245.209139 133,243 C133,240.790861 134.790861,239 137,239 Z M160,239 C162.209139,239 164,240.790861 164,243 C164,245.209139 162.209139,247 160,247 C157.790861,247 156,245.209139 156,243 C156,240.790861 157.790861,239 160,239 Z M183,239 C185.209139,239 187,240.790861 187,243 C187,245.209139 185.209139,247 183,247 C180.790861,247 179,245.209139 179,243 C179,240.790861 180.790861,239 183,239 Z M206,239 C208.209139,239 210,240.790861 210,243 C210,245.209139 208.209139,247 206,247 C203.790861,247 202,245.209139 202,243 C202,240.790861 203.790861,239 206,239 Z M137,217 C139.209139,217 141,218.790861 141,221 C141,223.209139 139.209139,225 137,225 C134.790861,225 133,223.209139 133,221 C133,218.790861 134.790861,217 137,217 Z M160,217 C162.209139,217 164,218.790861 164,221 C164,223.209139 162.209139,225 160,225 C157.790861,225 156,223.209139 156,221 C156,218.790861 157.790861,217 160,217 Z M183,217 C185.209139,217 187,218.790861 187,221 C187,223.209139 185.209139,225 183,225 C180.790861,225 179,223.209139 179,221 C179,218.790861 180.790861,217 183,217 Z M206,217 C208.209139,217 210,218.790861 210,221 C210,223.209139 208.209139,225 206,225 C203.790861,225 202,223.209139 202,221 C202,218.790861 203.790861,217 206,217 Z" id="Combined-Shape" fill="#476FFF"></path>
            </g>
        </g>
    </g>
</svg>