<svg xmlns="http://www.w3.org/2000/svg" width="17" height="22" viewBox="0 0 17 22">
    <g fill="none" fill-rule="evenodd">
        <g fill="#6D819C" fill-rule="nonzero">
            <g>
                <g>
                    <g>
                        <g>
                            <g>
                                <path d="M12.96 17.178c3.313 0 6-2.686 6-6s-2.687-6-6-6c-3.314 0-6 2.686-6 6s2.686 6 6 6zm0-14c4.418 0 8 3.582 8 8 0 4.08-3.054 7.446-7 7.938v6.065c0 .511-.383.933-.883.99l-.118.007c-.552 0-1-.446-1-.997v-6.065c-3.947-.492-7-3.859-7-7.938 0-4.418 3.582-8 8-8z" transform="translate(-269 -684) translate(168 267) translate(80 144) translate(0 252) translate(18 18) rotate(-30 12.96 14.678)"/>
                            </g>
                        </g>
                    </g>
                </g>
            </g>
        </g>
    </g>
</svg>
