<svg xmlns="http://www.w3.org/2000/svg" width="64" height="72" viewBox="0 0 64 72">
    <path fill="#476FFF" fill-rule="evenodd" d="M54.1 16.364c5.468 0 9.9 4.388 9.9 9.801v36.034C64 67.612 59.568 72 54.1 72H9.9C4.431 72 0 67.612 0 62.2V26.164c0-5.413 4.432-9.801 9.9-9.801zM64 35.381H53.042c-4.909 0-8.889 3.94-8.889 8.801 0 4.86 3.98 8.8 8.89 8.8H64v-17.6zm-11.302 4.783c2.23 0 4.037 1.79 4.037 3.999 0 2.208-1.807 4-4.037 4s-4.038-1.792-4.038-4c0-2.209 1.808-3.999 4.038-3.999zM38.502 2.608c2.717-1.946 6.516-1.347 8.486 1.339l1.325 1.806-26.55 8.859zm-12.17-.248C28.126-.156 31.64-.755 34.18 1.022l1.708 1.195-17.212 12.28zm23.67 4.878c2.536-.001 4.902 1.588 5.756 4.107l1.05 3.09H27.534l20.526-6.88c.02-.005.039-.007.058-.013.625-.203 1.261-.304 1.885-.304z"/>
</svg>
